<svg width="123" height="84" fill="none" xmlns="http://www.w3.org/2000/svg"><path fill-rule="evenodd" clip-rule="evenodd" d="M37.632 53.231h19.553c-2.84-8.526-3.987-17.707-4.26-26.725h-37.25c-1.584 0-2.348-1.475-1.529-2.842l9.121-14.701c1.53-2.514 5.134-4.318 8.03-4.318H67.78c2.895 0 6.445 1.804 8.029 4.318l1.53 2.46a107.72 107.72 0 004.478-1.531l-2.076-3.334C77.34 2.623 72.314 0 67.782 0H31.295c-4.533 0-9.558 2.623-11.961 6.504l-6.827 11.04h-8.74c-4.041 0-5.352 6.339-1.474 7.541l4.643 1.476-2.076 3.388C2.185 34.212 1.584 41.59 1.584 48.476v22.572a2.448 2.448 0 002.458 2.459h10.541a2.448 2.448 0 002.458-2.46v-6.011h45.442c-1.147-1.913-2.13-3.88-3.058-5.903H37.632c-.874 0-1.53-.71-1.53-1.53v-2.787c-.054-.875.656-1.585 1.53-1.585zm52.16-36.617c8.74 3.935 18.133 6.285 27.637 7.488-.219 14.974-2.731 30.933-12.835 42.41-4.151 4.754-9.285 8.361-14.802 11.258-5.57-2.897-10.65-6.504-14.801-11.259-10.105-11.476-12.617-27.49-12.836-42.41 9.504-1.202 18.898-3.552 27.637-7.487zm0-6.176c-9.121 4.482-20.045 7.488-33.208 8.635-.546 35.47 10.05 53.942 33.208 64.927C112.95 73.015 123.546 54.543 123 19.073c-13.163-1.147-24.141-4.153-33.208-8.635zm0 63.123V45.033h21.465c1.475-5.793 2.13-11.86 2.349-17.762-8.193-1.257-16.222-3.388-23.814-6.613v24.375H68.327c1.748 6.996 4.697 13.608 9.45 19.019 3.385 3.88 7.537 6.995 12.015 9.51zM14.856 36.29l8.411 3.006c1.475.546 2.567 1.967 2.567 3.661a3.894 3.894 0 01-3.878 3.88H13a5.386 5.386 0 01-5.407-5.41A5.386 5.386 0 0113 36.017c.655-.055 1.256.054 1.857.273z" fill="#fff"/></svg>