<svg width="50" height="186" viewBox="0 0 50 186" fill="none" xmlns="http://www.w3.org/2000/svg">
<path d="M37.4359 158.73H27.1795L36.6667 136.606C36.9231 136.349 36.6667 136.091 36.1539 136.091H19.7436C19.4872 136.091 18.9744 136.349 18.9744 136.863L12.3077 163.618C12.3077 163.876 12.5641 164.39 12.8205 164.39H21.2821H21.5385L15.3846 185.228C15.1282 185.486 15.3846 186 15.8975 186H18.9744C19.2308 186 19.7436 185.743 20 185.485L37.6923 159.502C37.9487 158.988 37.6923 158.73 37.4359 158.73Z" fill="white"/>
<path d="M50 118.083H0V67.917H49.7436V118.083H50ZM4.35897 113.71H45.8974V72.0332H4.35897V113.71Z" fill="white"/>
<path d="M22.8205 104.963L16.1538 85.1535H15.8974L14.6154 109.336H10.5128L12.3077 76.9211H17.4359L24.8718 99.0456H25.1282L32.5641 76.9211H37.6923L39.4872 109.336H35.3846L34.1026 85.1535H33.8461L27.1795 104.963H22.8205Z" fill="white"/>
<path d="M17.1795 23.1535C20.5128 23.1535 23.0769 20.5809 23.0769 17.2365C23.0769 13.8921 20.5128 11.5768 17.1795 11.5768C13.8461 11.5768 11.282 14.1494 11.282 17.4938C11.282 20.8382 14.1026 23.1535 17.1795 23.1535Z" fill="white"/>
<path d="M24.1026 29.0705C26.1538 28.0415 27.6923 26.2407 28.9744 24.4398L32.3077 26.4979C33.8462 23.9253 34.8718 20.8382 34.8718 17.4938H30.7692C30.7692 15.1784 30.2564 12.8631 28.9744 11.0622L32.3077 9.26141C30.7692 6.43153 28.4615 4.37344 25.8974 2.57261L23.8462 5.65975C22.0513 4.37344 19.7436 3.85892 17.4359 3.85892V0H17.1795C14.1026 0 11.2821 0.771784 8.46154 2.31535L10.2564 5.65975C8.46154 6.6888 6.92308 8.48963 5.64103 10.2905L2.5641 8.48963C1.02564 11.0622 0 14.1494 0 17.4938H3.84615C3.84615 19.8091 4.35897 22.1245 5.64103 24.1826L2.05128 25.7261C3.58974 28.556 5.89744 30.8714 8.46154 32.4149L10.2564 29.0705C12.5641 30.0996 14.6154 30.8714 16.9231 30.8714V34.7303H17.1795C20.2564 34.7303 23.0769 33.9585 25.8974 32.4149L24.1026 29.0705ZM17.1795 8.74689C21.7949 8.74689 25.641 12.6058 25.641 17.2365C25.641 21.8672 22.0513 25.7261 17.1795 25.7261C12.3077 25.7261 8.71795 22.1245 8.71795 17.2365C8.71795 12.3485 12.5641 8.74689 17.1795 8.74689Z" fill="white"/>
<path d="M47.1795 37.0456H50C50 34.7303 49.2308 32.4149 47.9487 30.6141L45.641 32.1577C44.8718 30.8714 43.5897 29.5851 42.0513 28.8133L43.3333 26.4979C43.3333 26.4979 43.3333 26.4979 43.0769 26.4979C41.0256 25.4689 38.9744 24.9543 36.6667 24.9543V27.7842C34.8718 27.7842 33.3333 28.2987 32.0513 29.0705L30.7692 26.4979C28.7179 27.7842 27.1795 29.3278 26.1538 31.3859L27.9487 32.4149L28.4615 32.6722C27.6923 34.2158 27.1795 35.7593 27.4359 37.5602H24.6154C24.6154 39.8755 25.3846 42.1909 26.6667 43.9917L28.9744 42.4481C29.7436 43.7344 31.0256 45.0207 32.5641 45.7925L31.2821 48.1079H31.5385C33.3333 49.1369 35.1282 49.6514 37.1795 49.6514C37.4359 49.6514 37.6923 49.6514 37.9487 49.6514V46.8216C39.7436 46.8216 41.2821 46.307 42.5641 45.5353L43.8462 47.8506C45.8974 46.5643 47.4359 45.0207 48.4615 42.9626L46.1538 41.9336C46.9231 40.39 47.4359 38.8465 47.1795 37.0456ZM37.1795 43.4772C36.1538 43.4772 35.3846 43.2199 34.359 42.7054C31.2821 41.1618 30.2564 37.3029 31.7949 34.2158C32.8205 32.1577 35.1282 30.8714 37.4359 30.8714C38.4615 30.8714 39.2308 31.1286 40.2564 31.6431C43.3333 33.1867 44.359 37.0456 42.8205 40.1328C41.7949 42.4481 39.7436 43.7344 37.1795 43.4772Z" fill="white"/>
<path d="M39.4872 33.4439C37.4359 32.4149 34.8718 33.1867 33.8461 35.2448C32.8205 37.3029 33.5897 39.8755 35.641 40.9045C37.6923 41.9336 40.2564 41.1618 41.282 39.1037C42.3077 37.3029 41.5385 34.7302 39.4872 33.4439Z" fill="white"/>
</svg>
