<svg width="40" height="36" fill="none" xmlns="http://www.w3.org/2000/svg"><path d="M35.696 4.238v.001a11.098 11.098 0 012.417 3.533A10.89 10.89 0 0139 12.115v.002c0 1.413-.287 2.907-.874 4.45l-.001.002c-.487 1.288-1.203 2.644-2.128 4.031-1.465 2.194-3.497 4.508-6.049 6.874-4.238 3.928-8.433 6.641-8.594 6.745l-1.095.705-.001.001c-.157.1-.36.1-.516 0h-.001l-1.095-.706-.008-.005-.008-.005-.017-.01-.046-.03-.163-.107a65.899 65.899 0 01-2.528-1.78 69.2 69.2 0 01-5.825-4.808c-2.551-2.366-4.583-4.68-6.047-6.873-.924-1.386-1.637-2.743-2.13-4.035C1.287 15.024 1 13.53 1 12.118A11.023 11.023 0 014.307 4.24l.001-.002a11.212 11.212 0 013.572-2.37h.001A11.236 11.236 0 0112.238 1a11.324 11.324 0 017.133 2.524l.631.515.632-.515A11.324 11.324 0 0127.767 1h.002a11.236 11.236 0 014.354.867h.002a11.238 11.238 0 013.571 2.371z" stroke="#fff" stroke-width="2"/></svg>