<svg width="40" height="36" fill="none" xmlns="http://www.w3.org/2000/svg"><path d="M39.032 7.377a12.098 12.098 0 00-2.634-3.851 12.238 12.238 0 00-3.89-2.582A12.237 12.237 0 0027.768 0a12.323 12.323 0 00-7.766 2.75c-.416-.34-.856-.652-1.32-.936A12.323 12.323 0 0012.239 0C10.594 0 9 .316 7.496.944a12.212 12.212 0 00-3.89 2.582A12.024 12.024 0 000 12.117c0 1.55.315 3.164.94 4.806.523 1.372 1.273 2.795 2.232 4.233 1.518 2.274 3.607 4.646 6.2 7.051 4.296 3.987 8.551 6.74 8.732 6.852l1.097.707a1.482 1.482 0 001.598 0l1.097-.707c.18-.116 4.431-2.865 8.732-6.852 2.593-2.405 4.682-4.777 6.2-7.051.959-1.438 1.713-2.861 2.232-4.233.625-1.642.94-3.256.94-4.805a11.891 11.891 0 00-.968-4.74z" fill="#fff"/></svg>