<svg width="99" height="89" fill="none" xmlns="http://www.w3.org/2000/svg"><g clip-path="url(#clip0)" fill="#fff"><path d="M90.91 38.867L49.865 9.817c-.266-.198-1.128-.198-1.393 0L8.09 38.406C5.636 40.12 2.387 39.724.862 37.55-.663 35.376 0 32.214 2.387 30.501L42.77 1.911c3.647-2.57 9.15-2.57 12.731 0l41.045 29.051c2.454 1.713 3.183 4.875 1.592 7.05-1.592 2.173-4.774 2.568-7.228.855z"/><path d="M12.533 38.077l36.602-25.89 36.67 25.89H12.531zM30.701.593H19.628v23.189L30.7 18.577V.593zM12.533 38.077V89h73.271V38.077H12.532zm42.172 20.422v15.81h-11.14V58.5a10.388 10.388 0 01-5.04-8.96c0-5.797 4.775-10.54 10.61-10.54 5.836 0 10.61 4.743 10.61 10.54a10.47 10.47 0 01-5.04 8.96z"/></g><defs><clipPath id="clip0"><path fill="#fff" d="M0 0h99v89H0z"/></clipPath></defs></svg>