<svg width="215" height="83" fill="none" xmlns="http://www.w3.org/2000/svg"><g clip-path="url(#clip0)" fill="#fff"><path fill-rule="evenodd" clip-rule="evenodd" d="M38.058 7.96c-1.99-2.34-4.45-4.33-7.611-5.736C27.285.82 23.537.117 19.087.117H4.802c-1.873 0-3.044.351-3.63 1.054C.468 1.99.234 3.16.234 4.8v44.134c0 1.639.351 2.81.937 3.512.586.702 1.874 1.053 3.63 1.053h15.106c4.45 0 8.198-.702 11.242-2.224 3.045-1.522 5.504-3.512 7.26-5.97 1.874-2.459 3.162-5.385 3.865-8.663.82-3.278 1.171-6.673 1.171-10.185 0-3.512-.468-6.907-1.288-10.185-.82-3.16-2.225-5.97-4.099-8.311zm-7.143 25.404a13.447 13.447 0 01-2.108 5.268c-1.054 1.522-2.459 2.692-4.215 3.512-1.757.82-3.982 1.288-6.558 1.288h-6.207V10.185H17.8c2.694 0 4.919.468 6.675 1.287 1.757.82 3.162 1.99 4.216 3.395 1.054 1.405 1.757 3.161 2.225 5.151a36.53 36.53 0 01.585 6.439c0 2.575-.234 4.8-.585 6.907zM134.668 43.9c-.234-.234-.586-.234-1.171-.234h-19.322c-1.523 0-2.811-.351-3.747-.937-.937-.702-1.406-1.99-1.406-3.863V1.639c0-.702-.117-1.054-.351-1.288-.234-.234-.703-.351-1.522-.351h-8.08c-.586 0-1.054.117-1.288.351-.235.234-.469.703-.469 1.288v37.93c0 1.755.234 3.394.586 5.15.35 1.64 1.17 3.161 2.225 4.449 1.053 1.288 2.459 2.341 4.332 3.16 1.757.82 4.099 1.171 7.026 1.171h22.016c.937 0 1.405-.585 1.405-1.639v-6.79c.117-.585 0-1.053-.234-1.17zm36.301-35.471v-6.79c0-.702-.117-1.054-.351-1.288-.234-.234-.585-.351-1.171-.351h-39.112c-.586 0-.937.117-1.171.351-.234.234-.351.586-.351 1.288v6.79c0 1.053.468 1.522 1.405 1.522h13.467v42.026c0 .586.117 1.054.468 1.288.234.234.703.351 1.288.351h8.197c.82 0 1.288-.117 1.523-.35.234-.235.351-.586.351-1.289V9.951h13.818c1.171 0 1.639-.469 1.639-1.522zm43.914 43.665l-15.809-47.88c-.351-.936-.585-1.639-.937-2.224a4.164 4.164 0 00-1.171-1.288c-.468-.35-.937-.468-1.639-.585C194.624 0 193.922 0 193.102 0h-4.567c-.82 0-1.405.117-1.991.234-.585.117-1.054.351-1.522.703-.469.35-.82.702-1.171 1.287-.352.586-.586 1.288-.937 2.107l-15.926 47.88c-.117.352-.117.82 0 1.054.117.351.468.468 1.054.468h8.9c.702 0 1.171-.117 1.522-.35.234-.235.468-.586.703-1.054l2.927-9.717h17.448l2.928 9.95c.117.586.468.937.82 1.054.351.117.819.234 1.405.234h9.134c.585 0 .937-.234.937-.585.234-.585.234-.936.117-1.17zm-29.978-19.081l2.927-9.717 2.928-10.887h.468l2.811 10.887 2.927 9.717h-12.061zM87.593 43.549h-25.06V30.203H84.43c.585 0 1.054-.117 1.17-.468.235-.234.235-.703.235-1.288v-5.97c0-.703-.117-1.17-.234-1.405-.234-.234-.586-.351-1.171-.351H62.533V10.068H86.89c.585 0 .937-.117 1.171-.351.234-.235.351-.703.351-1.288V1.873c0-.702-.117-1.17-.234-1.405-.234-.234-.585-.35-1.17-.35H52.344c-.586 0-.937.116-1.171.35-.234.234-.352.586-.352 1.288v50.338c0 .586.117 1.054.469 1.288.234.234.702.351 1.288.351h35.014c.585 0 1.053-.117 1.17-.468.235-.234.352-.702.352-1.288V45.54c0-.82-.117-1.288-.234-1.522-.117-.234-.586-.468-1.288-.468z"/><path d="M7.963 71.762c-.586-.352-1.522-.82-2.693-.82C2.576 71.06 0 72.698 0 77.264 0 81.595 2.46 83 5.035 83c.937 0 1.874-.234 2.577-.585.351-.235.585-.469.585-.586 0-.117 0-.234-.117-.234l-.585-1.522c0-.117-.118-.117-.118-.117-.117 0-.35.234-.702.352-.351.234-.82.35-1.405.35-.937 0-1.523-.468-1.757-1.053-.234-.468-.468-1.17-.468-2.458 0-1.756.351-2.576.468-2.81.351-.585.82-1.053 1.757-1.053.585 0 1.054.234 1.522.468.351.234.468.35.703.35.117 0 .117-.116.117-.116l.82-1.405c0-.117.116-.117.116-.234-.117-.117-.117-.234-.585-.585zm11.242-.703l-1.757.351c-.351.118-.468 0-.82.469l-2.224 3.863c-.469.702-.82 1.405-1.406 2.81h-.117c0-.586.117-1.757.117-2.459V71.41c0-.35-.234-.35-.35-.234l-2.109.469c-.468.117-.468.234-.468.35v10.42c0 .234.117.35.351.35h2.225c.234 0 .351-.116.469-.35l2.107-3.98c.234-.586.586-1.054 1.405-2.81h.118c-.117 1.522-.117 1.99-.117 2.458v4.332c0 .234.117.35.35.35h2.226c.234 0 .351-.116.351-.35V71.527c0-.585-.117-.468-.351-.468zm10.539.703c-.585-.352-1.522-.82-2.693-.82-2.694 0-5.27 1.756-5.27 6.205 0 4.331 2.46 5.736 5.035 5.736.937 0 1.874-.234 2.577-.585.351-.235.585-.352.585-.586 0-.117 0-.234-.117-.234l-.585-1.405c0-.117-.117-.117-.117-.117-.118 0-.352.234-.703.352-.351.234-.82.35-1.405.35-.937 0-1.523-.468-1.757-1.053-.234-.468-.468-1.17-.468-2.458 0-1.756.351-2.576.468-2.81.351-.585.82-1.053 1.757-1.053.585 0 1.054.234 1.522.468.351.234.468.35.703.35.117 0 .117-.116.117-.116l.82-1.522c0-.117.116-.117.116-.234-.117 0-.234-.117-.585-.468zm10.188-.352h-8.197c-.235 0-.352.118-.352.352V73.4c0 .235.117.352.352.352h2.576v8.546c0 .234.117.35.351.35h2.225c.234 0 .352-.116.352-.35v-8.546h2.459c.117 0 .234 0 .351-.352l.351-1.521c-.117-.234 0-.469-.468-.469zm5.855-.35c-3.162 0-4.918 2.692-4.918 6.204 0 1.522.351 5.619 5.152 5.619 1.288 0 2.81-.351 3.63-.937.235-.117.352-.234.352-.468 0-.117 0-.117-.117-.234l-.586-1.288a.252.252 0 00-.234-.234c-.117 0-.351.117-.586.234-.468.234-1.17.468-2.225.468-1.873 0-2.459-1.17-2.459-2.81h6.09c.234 0 .468 0 .468-.702 0-.585 0-1.404-.234-2.34-.469-1.64-1.523-3.513-4.333-3.513zm1.522 4.565h-3.513c.117-1.522.586-2.576 1.874-2.576.937 0 1.405.469 1.522 1.405 0 .234.117.586.117 1.17zm15.692-3.863c0-.352-.234-.352-.468-.352h-1.874c-.117 0-.351 0-.468.235l-1.757 4.8c-.234.585-.468 1.872-.585 2.34-.117-.468-.352-1.755-.586-2.34l-1.756-4.8c-.118-.235-.352-.235-.469-.235h-1.873c-.235 0-.469 0-.469.352l-.585 10.536c0 .234 0 .35.468.35h1.522c.235 0 .469 0 .469-.35l.234-7.258h.117c.234.819.468 1.755.82 2.575l1.17 3.395c.118.351.235.234.47.234h1.17c.234 0 .352 0 .469-.234l1.17-3.395c.235-.82.586-1.756.82-2.575h.117l.235 7.258c0 .35.234.35.468.35h1.522c.469 0 .469-.116.469-.35L63 71.762zm15.809-.703l-2.108.469c-.468.116-.468.234-.468.35v10.42c0 .234.117.35.351.35h2.225c.351 0 .351-.116.351-.35V71.41c.117-.468-.117-.35-.351-.35zm-5.153 5.151c-1.053-.82-2.342-.936-3.513-.936h-1.288v-3.98c0-.352-.234-.352-.351-.235l-1.757.351c-.82.234-.82.118-.82.469v10.419c0 .234.118.35.352.35h3.513c1.171 0 2.693 0 3.747-.936 1.054-.82 1.171-1.99 1.171-2.81.117-1.053-.117-1.99-1.054-2.692zm-3.63 4.098h-1.17v-2.81h1.404c.469 0 1.64 0 1.64 1.405 0 1.404-1.054 1.404-1.874 1.404zm22.484-8.78c-1.522 0-2.694.702-3.279 1.872h-.117v-.234c.234-2.224 1.99-3.043 2.576-3.277l4.684-1.99c.469-.235.352-.469.352-.586l-.703-1.639c-.117-.351-.585-.117-.703-.117l-4.215 1.873c-1.757.82-2.928 2.341-3.396 3.746-.469 1.288-.586 2.81-.586 4.449 0 1.522.117 3.16.703 4.565 1.17 2.342 3.279 2.693 4.216 2.693 2.576 0 4.918-1.756 4.918-5.736 0-3.512-1.757-5.62-4.45-5.62zm-.351 9.13c-1.757 0-1.874-2.106-1.874-3.511 0-1.405.117-3.395 1.874-3.395 1.756 0 1.873 1.99 1.873 3.395-.117 1.521-.117 3.512-1.873 3.512zm11.476-9.599c-3.162 0-4.919 2.693-4.919 6.205 0 1.522.352 5.619 5.153 5.619 1.288 0 2.81-.351 3.63-.937.234-.117.351-.234.351-.468 0-.117 0-.117-.117-.234l-.585-1.288c0-.117-.117-.234-.235-.234-.117 0-.351.117-.585.234-.468.234-1.171.468-2.225.468-1.874 0-2.459-1.17-2.459-2.81h6.089c.352 0 .469 0 .469-.702 0-.585 0-1.404-.235-2.34-.468-1.64-1.522-3.513-4.332-3.513zm1.405 4.566h-3.513c.117-1.522.585-2.576 1.873-2.576.937 0 1.406.469 1.523 1.405.117.234.117.586.117 1.17zm10.773 1.053c1.054-.468 1.64-1.404 1.64-2.575 0-1.054-.469-1.756-.937-2.224-.937-.82-2.108-.937-2.928-.937-1.639 0-2.693.468-3.161.703-.118.117-.586.35-.586.585 0 .117 0 .117.117.234l.703 1.17s.117.118.234.118.234-.117.585-.352c.235-.117.937-.468 1.757-.468.937 0 1.522.468 1.522 1.288 0 1.288-1.171 1.405-1.873 1.405h-.469c-.234 0-.351.117-.351.351v1.522c0 .234.117.351.351.351h.469c.702 0 2.108 0 2.108 1.405 0 .585-.235 1.639-1.757 1.639-.82 0-1.405-.234-2.108-.585-.351-.118-.468-.235-.585-.235a.253.253 0 00-.235.235l-.468 1.17c0 .117-.117.117-.117.234 0 .351.351.468.82.703.819.35 1.99.702 3.044.702 2.577 0 4.45-1.288 4.45-3.629-.468-1.639-1.288-2.458-2.225-2.81zm8.197-5.619c-2.459 0-4.918 1.756-4.918 5.97 0 4.215 2.459 5.971 4.918 5.971 2.46 0 4.919-1.756 4.919-5.97 0-4.332-2.342-5.97-4.919-5.97zm0 9.6c-1.756 0-1.873-1.99-1.873-3.747 0-1.756.117-3.746 1.873-3.746 1.757 0 1.874 1.99 1.874 3.746s-.117 3.747-1.874 3.747zm15.809-9.249h-8.314c-.234 0-.351 0-.351.352v10.536c0 .234 0 .35.351.35h2.225c.234 0 .351-.116.351-.35v-8.546h3.162v8.546c0 .234.117.35.351.35h2.225c.352 0 .352-.116.352-.35V71.762c-.118-.352-.118-.352-.352-.352zm10.891 7.61v-4.332c0-.35 0-1.404-.469-2.224-.702-1.17-1.99-1.405-3.396-1.405-.936 0-2.576.234-3.513.586-.585.234-.585.35-.468.702l.468 1.405c0 .117.117.234.235.234.117 0 .351-.117 1.053-.351a5.31 5.31 0 011.874-.352c.586 0 1.054.235 1.171.469.234.35.234.936.234 1.17v.703c-1.288 0-3.396.117-4.567.936-.468.351-1.405 1.171-1.405 2.927 0 2.107 1.288 3.395 3.396 3.395 1.288 0 2.108-.468 2.928-1.405l.351 1.054c.234.35.351.35.468.234l1.874-.703a.252.252 0 00.234-.234c0-.117-.117-.234-.234-.702-.234-.703-.234-1.405-.234-2.107zm-2.694.936c-.468.586-1.053.82-1.639.82-.82 0-1.522-.586-1.522-1.522 0-1.522 1.639-1.873 3.161-1.756v2.458zm12.647-8.194c-.585-.352-1.522-.82-2.693-.82-2.693 0-5.269 1.756-5.269 6.205 0 4.331 2.459 5.736 5.035 5.736.937 0 1.874-.234 2.576-.585.351-.235.586-.352.586-.586 0-.117 0-.234-.117-.234l-.586-1.522c0-.117-.117-.117-.117-.117-.117 0-.351.234-.703.351-.351.234-.819.352-1.405.352-.937 0-1.522-.469-1.756-1.054-.235-.468-.469-1.17-.469-2.458 0-1.756.351-2.576.469-2.81.351-.585.819-1.054 1.756-1.054.586 0 1.054.234 1.522.469.352.234.469.35.703.35.117 0 .117-.116.117-.116l.82-1.522c0-.117.117-.117.117-.234 0 .117-.117 0-.586-.351zm10.891-.703l-2.108.469c-.468.116-.468.234-.468.35v3.747H165.7V71.41c0-.35-.234-.35-.351-.234l-1.757.352c-.82.116-.703.234-.703.468v10.419c0 .234.118.35.352.35h2.225c.351 0 .351-.116.351-.35v-4.449h3.279v4.449c0 .234.117.35.351.35h2.225c.351 0 .351-.116.351-.35V71.527c-.117-.585-.234-.468-.468-.468zm7.495 0c-2.46 0-4.919 1.756-4.919 5.97 0 4.215 2.459 5.971 4.919 5.971 2.459 0 4.918-1.756 4.918-5.97 0-4.332-2.459-5.97-4.918-5.97zm0 9.6c-1.757 0-1.874-1.99-1.874-3.747 0-1.756.117-3.746 1.874-3.746 1.756 0 1.873 1.99 1.873 3.746-.117 1.756-.117 3.747-1.873 3.747zm14.403-8.897c-.585-.352-1.522-.82-2.693-.82-2.694 0-5.27 1.756-5.27 6.205 0 4.331 2.459 5.736 5.036 5.736.936 0 1.873-.234 2.576-.585.351-.235.585-.352.585-.586 0-.117 0-.234-.117-.234l-.585-1.522c0-.117-.117-.117-.117-.117-.117 0-.352.234-.703.351-.468.234-.82.352-1.405.352-.937 0-1.523-.469-1.757-1.054-.234-.468-.468-1.17-.468-2.458 0-1.756.351-2.576.468-2.81.352-.585.82-1.054 1.757-1.054.585 0 1.054.234 1.522.469.351.234.469.35.703.35.117 0 .117-.116.117-.116l.82-1.522c0-.117.117-.117.117-.234 0 .117-.117 0-.586-.351zm10.188-.352h-8.197c-.234 0-.351.118-.351.352V73.4c0 .235.117.352.351.352h2.576v8.546c0 .234.117.35.351.35h2.225c.352 0 .352-.116.352-.35v-8.546h2.459c.117 0 .234 0 .351-.352l.351-1.521c0-.234 0-.469-.468-.469zm10.891-.35l-1.757.35c-.351.118-.468 0-.82.469l-2.225 3.863c-.468.702-.819 1.405-1.405 2.81h-.117c0-.586.117-1.757.117-2.459V71.41c0-.35-.234-.35-.351-.234l-2.108.469c-.468.117-.468.234-.468.35v10.42c0 .234.117.35.351.35h2.225c.351 0 .351-.116.468-.35l2.108-3.98c.351-.586.586-1.054 1.405-2.81h.117c-.117 1.522-.117 1.99-.117 2.458v4.332c0 .234.117.35.352.35h2.225c.351 0 .351-.116.351-.35V71.527c0-.585-.117-.468-.351-.468z"/></g><defs><clipPath id="clip0"><path fill="#fff" d="M0 0h215v83H0z"/></clipPath></defs></svg>