<svg width="11" height="17" fill="none" xmlns="http://www.w3.org/2000/svg"><path d="M5.043 8.665c2.265 0 4.153-1.888 4.153-4.154 0-2.265-1.888-4.153-4.153-4.153C2.777.358.889 2.246.889 4.51c0 2.266 1.888 4.154 4.154 4.154zm0-6.23c1.132 0 2.076.943 2.076 2.076a2.095 2.095 0 01-2.076 2.077 2.095 2.095 0 01-2.077-2.077c0-1.133.944-2.076 2.077-2.076zM9.857 9.23c-.19-.472-.85-.85-1.794-.189-1.133.944-3.02.944-3.02.944s-1.888 0-3.021-.944c-.85-.66-1.51-.283-1.794.19-.377.849.095 1.226 1.133 1.887.85.566 2.077.755 2.926.85l-.66.66-2.455 2.455a.912.912 0 000 1.321l.095.095a.912.912 0 001.321 0l2.455-2.455L7.497 16.5a.912.912 0 001.321 0l.095-.095a.912.912 0 000-1.321l-2.455-2.455-.66-.66c.755-.095 1.982-.284 2.926-.85 1.133-.66 1.605-1.133 1.133-1.888z" fill="#000" fill-opacity=".8"/></svg>