<svg width="118" height="121" fill="none" xmlns="http://www.w3.org/2000/svg"><path d="M62.402 29.253c8.132 0 14.605-6.482 14.605-14.627C77.007 6.482 70.534 0 62.402 0 54.27 0 47.797 6.482 47.797 14.626c0 7.978 6.639 14.627 14.605 14.627zm52.445 38.56h-3.32c-2.157-5.817-6.14-11.136-11.617-15.457-2.655-2.161-2.157-4.488-1.494-5.651.664-1.662 1.66-3.325 2.656-4.654 2.987-3.657.996-4.654-.996-4.654-3.817 0-8.298 1.33-12.613 4.82-1.494.997-2.656 1.828-6.14.997-5.312-1.496-11.286-2.327-17.261-2.327-25.392 0-46.138 14.128-48.96 32.411-1.825.997-3.816 1.496-5.808 1.662-1.826.166-3.817-.166-5.477-1.163-1.162-.665-1.825-1.662-2.323-2.992l.332-1.828c.663-.665.995-.665 1.327.166-.995-.333-1.493 1.33-.498 1.662 1.162.332 1.66.166 2.656-.333.166-.166.498-.498.332-.664-.498-5.319-8.132-2.327-5.311 3.158 2.821 4.654 9.626 4.321 14.605 2.16 0 .665-.166 1.496-.166 2.327 0 12.3 8.132 23.103 20.58 29.752 1.493.831 4.812 3.656 4.812 6.482v5.651c0 .997.664 1.662 1.66 1.662h10.456c.83 0 1.66-.665 1.66-1.662v-2.826c0-1.662.165-3.324 3.484-2.825 2.158.166 4.481.332 6.805.332 2.157 0 4.315-.166 6.472-.332 2.49-.499 3.818.166 3.818 2.659v2.992c0 .997.663 1.662 1.66 1.662h10.455c.83 0 1.66-.665 1.66-1.662v-5.319c0-3.49 1.161-5.152 3.65-6.482 9.295-4.82 16.431-11.967 19.584-20.277h3.486c1.825 0 3.153-.998 3.153-2.327V70.14c-.166-1.163-1.494-2.327-3.319-2.327zm-26.388 4.322c-2.988 0-5.477-2.494-5.477-5.485 0-2.992 2.49-5.485 5.477-5.485s5.476 2.493 5.476 5.485c0 2.991-2.323 5.485-5.477 5.485z" fill="#fff"/></svg>