<svg width="65" height="35" fill="none" xmlns="http://www.w3.org/2000/svg"><path d="M7.787 22.329h-2.86v12.233H.159V.76H8.74c6.357 0 9.853 3.863 9.853 10.623 0 5.151-2.225 9.014-6.039 10.302l7.31 12.877h-5.403L7.787 22.329zM4.927 17.5H8.74c3.496 0 5.085-2.253 5.085-6.117 0-3.862-1.907-6.116-5.085-6.116H4.927V17.5zm35.916 12.233v4.507H23.998V.76h16.21v4.507H28.765v9.658h10.49v4.506h-10.49v10.302h12.078zm4.45-5.151V10.74c0-6.76 3.815-10.624 9.536-10.624 6.039 0 9.535 3.542 9.853 10.302h-4.768c-.317-3.863-1.907-5.795-5.085-5.795-2.86 0-4.768 1.932-4.768 5.795V24.26c0 3.863 1.907 5.795 4.768 5.795 3.178 0 5.085-1.932 5.403-5.795H65c-.318 6.76-3.814 10.302-10.171 10.302-5.721.322-9.536-3.22-9.536-9.98z" fill="#fff"/></svg>