<svg width="58" height="452" fill="none" xmlns="http://www.w3.org/2000/svg"><path d="M0 3.17h28.547v445.207H0V452h31.719V0H0v3.17z" fill="#fff"/><path d="M0 375.459v4.529h23.563v-4.529H0zm8.156 16.305v2.264H23.11v-2.264H8.156zm0 14.945v2.265H23.11v-2.265H8.156zm0 15.399v2.265H23.11v-2.265H8.156zm0 14.946v2.265H23.11v-2.265H8.156zm0-121.379v2.265H23.11v-2.265H8.156zm0 15.399v2.265H23.11v-2.265H8.156zm0 14.946v2.265H23.11v-2.265H8.156zm0 15.399v2.264H23.11v-2.264H8.156zm0-121.379v2.265H23.11v-2.265H8.156zm0 14.946v2.265H23.11v-2.265H8.156zm0 15.399v2.264H23.11v-2.264H8.156zm0 14.946v2.264H23.11v-2.264H8.156zm0-121.379v2.264H23.11v-2.264H8.156zm0 15.399v2.264H23.11v-2.264H8.156zm0 14.946v2.264H23.11v-2.264H8.156zm0 15.398v2.265H23.11v-2.265H8.156zM0 223.736v4.529h23.563v-4.529H0zM8.156 88.317v2.264H23.11v-2.264H8.156zm0 14.946v2.264H23.11v-2.264H8.156zm0 15.398v2.265H23.11v-2.265H8.156zm0 14.946v2.265H23.11v-2.265H8.156zM0 147.647v4.529h23.563v-4.529H0zM8.156 12.681v2.265H23.11V12.68H8.156zm0 14.946v2.265H23.11v-2.265H8.156zm0 15.399v2.265H23.11v-2.265H8.156zm0 14.946v2.264H23.11v-2.264H8.156zM0 72.012v4.53h23.563v-4.53H0zm0 227.359v4.529h23.563v-4.529H0zm49.844-83.788L43.954 226l5.89 9.964H58v-20.381h-8.156z" fill="#fff"/></svg>