<svg width="0" height="0" class="hidden">
  <symbol xmlns="http://www.w3.org/2000/svg" viewBox="0 0 99 89" id="house">
    <g clip-path="url(#clip0)">
      <path d="M90.91 38.867L49.865 9.817c-.266-.198-1.128-.198-1.393 0L8.09 38.406C5.636 40.12 2.387 39.724.862 37.55-.663 35.376 0 32.214 2.387 30.501L42.77 1.911c3.647-2.57 9.15-2.57 12.731 0l41.045 29.051c2.454 1.713 3.183 4.875 1.592 7.05-1.592 2.173-4.774 2.568-7.228.855z"></path>
      <path d="M12.533 38.077l36.602-25.89 36.67 25.89H12.531zM30.701.593H19.628v23.189L30.7 18.577V.593zM12.533 38.077V89h73.271V38.077H12.532zm42.172 20.422v15.81h-11.14V58.5a10.388 10.388 0 01-5.04-8.96c0-5.797 4.775-10.54 10.61-10.54 5.836 0 10.61 4.743 10.61 10.54a10.47 10.47 0 01-5.04 8.96z"></path>
    </g>
    <defs>
      <clipPath id="clip0">
        <path d="M0 0h99v89H0z"></path>
      </clipPath>
    </defs>
  </symbol>

  <symbol xmlns="http://www.w3.org/2000/svg" viewBox="0 0 123 84" id="car">
    <path fill-rule="evenodd" clip-rule="evenodd" d="M37.632 53.231h19.553c-2.84-8.526-3.987-17.707-4.26-26.725h-37.25c-1.584 0-2.348-1.475-1.529-2.842l9.121-14.701c1.53-2.514 5.134-4.318 8.03-4.318H67.78c2.895 0 6.445 1.804 8.029 4.318l1.53 2.46a107.72 107.72 0 004.478-1.531l-2.076-3.334C77.34 2.623 72.314 0 67.782 0H31.295c-4.533 0-9.558 2.623-11.961 6.504l-6.827 11.04h-8.74c-4.041 0-5.352 6.339-1.474 7.541l4.643 1.476-2.076 3.388C2.185 34.212 1.584 41.59 1.584 48.476v22.572a2.448 2.448 0 002.458 2.459h10.541a2.448 2.448 0 002.458-2.46v-6.011h45.442c-1.147-1.913-2.13-3.88-3.058-5.903H37.632c-.874 0-1.53-.71-1.53-1.53v-2.787c-.054-.875.656-1.585 1.53-1.585zm52.16-36.617c8.74 3.935 18.133 6.285 27.637 7.488-.219 14.974-2.731 30.933-12.835 42.41-4.151 4.754-9.285 8.361-14.802 11.258-5.57-2.897-10.65-6.504-14.801-11.259-10.105-11.476-12.617-27.49-12.836-42.41 9.504-1.202 18.898-3.552 27.637-7.487zm0-6.176c-9.121 4.482-20.045 7.488-33.208 8.635-.546 35.47 10.05 53.942 33.208 64.927C112.95 73.015 123.546 54.543 123 19.073c-13.163-1.147-24.141-4.153-33.208-8.635zm0 63.123V45.033h21.465c1.475-5.793 2.13-11.86 2.349-17.762-8.193-1.257-16.222-3.388-23.814-6.613v24.375H68.327c1.748 6.996 4.697 13.608 9.45 19.019 3.385 3.88 7.537 6.995 12.015 9.51zM14.856 36.29l8.411 3.006c1.475.546 2.567 1.967 2.567 3.661a3.894 3.894 0 01-3.878 3.88H13a5.386 5.386 0 01-5.407-5.41A5.386 5.386 0 0113 36.017c.655-.055 1.256.054 1.857.273z"></path>
  </symbol>

  <symbol xmlns="http://www.w3.org/2000/svg" viewBox="0 0 118 121" id="pig">
    <path d="M62.402 29.253c8.132 0 14.605-6.482 14.605-14.627C77.007 6.482 70.534 0 62.402 0 54.27 0 47.797 6.482 47.797 14.626c0 7.978 6.639 14.627 14.605 14.627zm52.445 38.56h-3.32c-2.157-5.817-6.14-11.136-11.617-15.457-2.655-2.161-2.157-4.488-1.494-5.651.664-1.662 1.66-3.325 2.656-4.654 2.987-3.657.996-4.654-.996-4.654-3.817 0-8.298 1.33-12.613 4.82-1.494.997-2.656 1.828-6.14.997-5.312-1.496-11.286-2.327-17.261-2.327-25.392 0-46.138 14.128-48.96 32.411-1.825.997-3.816 1.496-5.808 1.662-1.826.166-3.817-.166-5.477-1.163-1.162-.665-1.825-1.662-2.323-2.992l.332-1.828c.663-.665.995-.665 1.327.166-.995-.333-1.493 1.33-.498 1.662 1.162.332 1.66.166 2.656-.333.166-.166.498-.498.332-.664-.498-5.319-8.132-2.327-5.311 3.158 2.821 4.654 9.626 4.321 14.605 2.16 0 .665-.166 1.496-.166 2.327 0 12.3 8.132 23.103 20.58 29.752 1.493.831 4.812 3.656 4.812 6.482v5.651c0 .997.664 1.662 1.66 1.662h10.456c.83 0 1.66-.665 1.66-1.662v-2.826c0-1.662.165-3.324 3.484-2.825 2.158.166 4.481.332 6.805.332 2.157 0 4.315-.166 6.472-.332 2.49-.499 3.818.166 3.818 2.659v2.992c0 .997.663 1.662 1.66 1.662h10.455c.83 0 1.66-.665 1.66-1.662v-5.319c0-3.49 1.161-5.152 3.65-6.482 9.295-4.82 16.431-11.967 19.584-20.277h3.486c1.825 0 3.153-.998 3.153-2.327V70.14c-.166-1.163-1.494-2.327-3.319-2.327zm-26.388 4.322c-2.988 0-5.477-2.494-5.477-5.485 0-2.992 2.49-5.485 5.477-5.485s5.476 2.493 5.476 5.485c0 2.991-2.323 5.485-5.477 5.485z"></path>
  </symbol>

  <symbol xmlns="http://www.w3.org/2000/svg" viewBox="0 0 38 28" id="graph">
    <path d="M5.68 15.914H0V28h5.68V15.914zm8.031-5.036h-5.68V28h5.68V10.878zm8.227-4.835h-5.68V27.8h5.68V6.043zm8.031 6.647h-5.68V27.8h5.68V12.69zM38.196 0h-5.68v28h5.68V0z"></path>
  </symbol>
</svg>