<svg width="109" height="33" fill="none" xmlns="http://www.w3.org/2000/svg"><path d="M9.864 4.495h2.37v-2.92S10.407 0 7.242 0C2.952 0 0 2.958 0 6.915c0 3.919 2.913 6.877 7.32 6.877 3.34 0 4.913-1.71 4.913-1.71V9.201H9.864v1.901c-.563.289-1.456.596-2.602.596-2.932 0-4.718-2.055-4.718-4.802 0-2.766 1.825-4.802 4.68-4.802 1.164 0 2.058.326 2.64.595v1.806zm16.17 9.124h5.825v-1.767h-1.65V1.94h1.65V.173H16.713V1.94h1.631v9.912h-1.63v1.767h5.805v-1.767h-1.63V2.036h6.796v9.816h-1.651v1.767zM39.84 1.786h1.748l-4.155 10.066h-1.728v1.767h3.63l1.34-3.266h6.02l1.34 3.266h3.631v-1.767H49.92L45.122.172h-5.281v1.614zm3.845 1.268l2.233 5.436h-4.485l2.252-5.436zm20.712 1.441h2.37v-2.92S64.94 0 61.775 0c-4.292 0-7.243 2.958-7.243 6.915 0 3.919 2.913 6.877 7.32 6.877 3.34 0 4.913-1.71 4.913-1.71V9.201h-2.369v1.901c-.563.289-1.456.596-2.602.596-2.932 0-4.718-2.055-4.718-4.802 0-2.766 1.825-4.802 4.68-4.802 1.164 0 2.058.326 2.64.595v1.806zm6.849-2.555h1.631v9.912h-1.63v1.767h4.174l7.185-9.758v7.99h-1.65v1.768h5.825v-1.767h-1.65V1.94h1.65V.173h-4.175L75.42 9.93V1.94h1.631V.172h-5.806V1.94zm24.21 4.802h1.436v5.11h-1.436v1.767h3.805l4.505-5.628v3.86h-1.437v1.768h5.263v-1.767h-1.457v-5.11h1.457V4.975h-3.826l-4.505 5.628v-3.86h1.457V4.974h-5.263v1.767zM9.864 23.703h2.37v-2.92s-1.826-1.575-4.991-1.575C2.952 19.208 0 22.167 0 26.123 0 30.042 2.913 33 7.32 33c3.34 0 4.913-1.71 4.913-1.71v-2.88H9.864v1.9c-.563.289-1.456.596-2.602.596-2.932 0-4.718-2.055-4.718-4.802 0-2.766 1.825-4.802 4.68-4.802 1.164 0 2.058.327 2.64.596v1.805zm4.112 2.401c0 3.938 3.087 6.896 7.165 6.896 4.097 0 7.184-2.958 7.184-6.896 0-3.938-3.087-6.896-7.184-6.896-4.078 0-7.165 2.959-7.165 6.896zm2.543 0c0-2.766 1.942-4.802 4.622-4.802 2.699 0 4.64 2.036 4.64 4.802 0 2.766-1.941 4.802-4.64 4.802-2.68 0-4.622-2.036-4.622-4.802zm23.339-6.723l-3.554 4.668-3.534-4.668h-3.282v1.767h1.71l3.65 4.822-3.884 5.09h-1.709v1.767h3.282l3.767-4.956 3.767 4.956h3.32V31.06h-1.747l-3.884-5.09 3.67-4.822h1.71v-1.767h-3.282zm4.549 1.767h1.63v9.912h-1.63v1.767h6.233V31.06h-2.06v-3.554h2.952c2.777 0 4.757-1.69 4.757-4.072 0-2.362-1.98-4.053-4.757-4.053h-7.127v1.767zm7.126.096c1.34 0 2.213.942 2.213 2.19 0 1.249-.873 2.21-2.213 2.21H48.58v-4.4h2.952zm8.48-.249h1.748L57.605 31.06h-1.728v1.767h3.631l1.34-3.265h6.02l1.34 3.265h3.63V31.06h-1.747l-4.796-11.679h-5.282v1.614zm3.845 1.267l2.233 5.436h-4.486l2.253-5.436zm18.237 10.565h5.826V31.06h-1.65v-9.912h1.65v-1.767h-5.826v1.767h1.65v3.842H76.95v-3.842h1.63v-1.767h-5.805v1.767h1.63v9.912h-1.63v1.767h5.806V31.06H76.95v-4.226h6.796v4.226h-1.65v1.767zm6.835-11.679h1.632v9.912h-1.631v1.767h4.175l7.184-9.758v7.991h-1.65v1.767h5.825V31.06h-1.65v-9.912h1.65v-1.767h-4.175l-7.184 9.758v-7.99h1.63V19.38h-5.805v1.767zm17.099 10.392c0 .807.68 1.46 1.495 1.46.796 0 1.476-.653 1.476-1.46 0-.807-.68-1.46-1.476-1.46-.815 0-1.495.653-1.495 1.46z" fill="#fff"/></svg>