<svg width="809" height="249" fill="none" xmlns="http://www.w3.org/2000/svg"><path d="M73.192 34.6H90.76V12.712S77.224.904 53.752.904C21.928.904.04 23.08.04 52.744c0 29.376 21.6 51.552 54.288 51.552 24.768 0 36.432-12.816 36.432-12.816v-21.6H73.192v14.256c-4.176 2.16-10.8 4.464-19.296 4.464-21.744 0-34.992-15.408-34.992-36 0-20.736 13.536-36 34.704-36 8.64 0 15.264 2.448 19.584 4.464V34.6zM193.105 103h43.2V89.752h-12.24V15.448h12.24V2.2h-112.32v13.248h12.096v74.304h-12.096V103h43.056V89.752h-12.096V16.168h50.4v73.584h-12.24V103zm102.388-88.704h12.96l-30.816 75.456h-12.816V103h26.928l9.936-24.48h44.64l9.936 24.48h26.928V89.752h-12.96L334.661 2.2h-39.168v12.096zm28.512 9.504l16.56 40.752h-33.264L324.005 23.8zm153.596 10.8h17.568V12.712S481.633.904 458.161.904c-31.824 0-53.712 22.176-53.712 51.84 0 29.376 21.6 51.552 54.288 51.552 24.768 0 36.432-12.816 36.432-12.816v-21.6h-17.568v14.256c-4.176 2.16-10.8 4.464-19.296 4.464-21.744 0-34.992-15.408-34.992-36 0-20.736 13.536-36 34.704-36 8.64 0 15.264 2.448 19.584 4.464V34.6zm50.793-19.152h12.096v74.304h-12.096V103h30.96l53.28-73.152v59.904h-12.24V103h43.2V89.752h-12.24V15.448h12.24V2.2h-30.96l-53.28 73.152V15.448h12.096V2.2h-43.056v13.248zm179.532 36h10.656v38.304h-10.656V103h28.224l33.408-42.192v28.944h-10.656V103h39.024V89.752h-10.8V51.448h10.8V38.2h-28.368L736.15 80.392V51.448h10.8V38.2h-39.024v13.248zM73.192 178.6H90.76v-21.888s-13.536-11.808-37.008-11.808C21.928 144.904.04 167.08.04 196.744c0 29.376 21.6 51.552 54.288 51.552 24.768 0 36.432-12.816 36.432-12.816v-21.6H73.192v14.256c-4.176 2.16-10.8 4.464-19.296 4.464-21.744 0-34.992-15.408-34.992-36 0-20.736 13.536-36 34.704-36 8.64 0 15.264 2.448 19.584 4.464V178.6zm30.489 18c0 29.52 22.896 51.696 53.136 51.696 30.384 0 53.28-22.176 53.28-51.696s-22.896-51.696-53.28-51.696c-30.24 0-53.136 22.176-53.136 51.696zm18.864 0c0-20.736 14.4-36 34.272-36 20.016 0 34.416 15.264 34.416 36s-14.4 36-34.416 36c-19.872 0-34.272-15.264-34.272-36zm173.073-50.4l-26.352 34.992-26.208-34.992h-24.336v13.248h12.672l27.072 36.144-28.8 38.16h-12.672V247h24.336l27.936-37.152L297.202 247h24.624v-13.248h-12.96l-28.8-38.16 27.216-36.144h12.672V146.2h-24.336zm33.735 13.248h12.096v74.304h-12.096V247h46.224v-13.248h-15.264v-26.64h21.888c20.592 0 35.28-12.672 35.28-30.528 0-17.712-14.688-30.384-35.28-30.384h-52.848v13.248zm52.848.72c9.936 0 16.416 7.056 16.416 16.416s-6.48 16.56-16.416 16.56h-21.888v-32.976h21.888zm62.889-1.872h12.96l-30.816 75.456h-12.816V247h26.928l9.936-24.48h44.64l9.936 24.48h26.928v-13.248h-12.96L484.258 146.2H445.09v12.096zm28.512 9.504l16.56 40.752h-33.264l16.704-40.752zM608.848 247h43.2v-13.248h-12.24v-74.304h12.24V146.2h-43.2v13.248h12.24v28.8h-50.4v-28.8h12.096V146.2h-43.056v13.248h12.096v74.304h-12.096V247h43.056v-13.248h-12.096v-31.68h50.4v31.68h-12.24V247zm50.693-87.552h12.096v74.304h-12.096V247h30.96l53.28-73.152v59.904h-12.24V247h43.2v-13.248h-12.24v-74.304h12.24V146.2h-30.96l-53.28 73.152v-59.904h12.096V146.2h-43.056v13.248zm126.798 77.904c0 6.048 5.04 10.944 11.088 10.944 5.904 0 10.944-4.896 10.944-10.944 0-6.048-5.04-10.944-10.944-10.944-6.048 0-11.088 4.896-11.088 10.944z" fill="#fff"/></svg>