<svg width="17" height="14" fill="none" xmlns="http://www.w3.org/2000/svg"><path d="M16.896 1.85c-.566.284-1.227.472-1.887.472.66-.377 1.227-1.038 1.416-1.793-.661.377-1.322.66-2.077.755-.567-.66-1.416-1.038-2.36-1.038A3.283 3.283 0 008.684 3.55c0 .283 0 .472.094.755C6.041 4.21 3.681 2.889 2.076.906c-.283.472-.472 1.039-.472 1.605 0 1.133.567 2.171 1.416 2.738-.566 0-1.038-.19-1.51-.378a3.248 3.248 0 002.643 3.21c-.283.094-.566.094-.85.094-.188 0-.377 0-.66-.094a3.143 3.143 0 003.02 2.265c-1.132.85-2.548 1.416-4.059 1.416H.85a8.943 8.943 0 005.003 1.51c6.041 0 9.251-5.003 9.251-9.25v-.378c.85-.566 1.322-1.133 1.793-1.794z" fill="#000" fill-opacity=".8"/></svg>