<svg width="13" height="13" fill="none" xmlns="http://www.w3.org/2000/svg"><path d="M11.602 6.76c-.472-.473-.85-.85-1.793-.945v-.094c.66-.283 1.132-.567 1.416-1.039.377-.472.472-.944.472-1.604 0-.472-.095-.944-.378-1.322-.283-.378-.66-.755-1.133-.944C9.714.623 9.242.434 8.676.34 8.204.246 7.07.246 5.938.246H.935v12.177h5.853c.944 0 1.793-.095 2.454-.189.661-.189 1.227-.377 1.7-.755.471-.283.849-.66 1.038-1.133.283-.472.377-.944.377-1.605 0-.85-.283-1.51-.755-1.982zm-7.08-4.154h1.51c.473 0 .945.094 1.322.188.378.19.567.472.567 1.039 0 .472-.19.755-.472.944-.283.189-.661.283-1.133.283H4.522V2.606zM7.638 9.78a3.52 3.52 0 01-1.133.189H4.522V7.042H6.6c.472 0 .85.095 1.039.189.472.189.66.566.66 1.133.095.755-.188 1.227-.66 1.416z" fill="#000" fill-opacity=".8"/></svg>