<svg width="208" height="48" fill="none" xmlns="http://www.w3.org/2000/svg"><g clip-path="url(#clip0)"><path d="M60.12 1.917V0H47.157v1.917h6.269l-9.403 34.286-9.118-34.286h5.627V0H24.149v1.917h5.058l-9.403 34.286-9.047-34.286h5.628V0H0v1.917h4.132L16.312 48h2.066L29.775 6.562l.285-1.474 10.4 42.986h2.066l12.75-46.157h4.844zm4.702 9.733c-.071 0-.071 0 0 0-6.696 0-10.614 4.276-10.614 12.24v6.783c.071 7.963 3.918 12.24 10.543 12.24 6.624 0 10.542-4.277 10.542-12.24v-6.784c.071-7.963-3.846-12.24-10.471-12.24zm5.342 22.415c0 6.562-1.78 7.52-5.413 7.52s-5.414-.958-5.414-7.373V20.35c0-6.415 1.852-7.373 5.414-7.373 3.633 0 5.413.958 5.413 7.52v13.568zm54.707-23.005h-1.638l-9.047 29.862h-2.849v1.327h8.477v-1.327h-4.061l2.778-9.07h7.694l2.422 9.07h-3.206v1.327h10.258v-1.327h-2.778l-8.05-29.862zm-5.983 19.54l3.561-11.872h.285l3.134 11.871h-6.98zm-12.039 10.322V12.977h2.778V11.65h-7.835l-8.335 24.258-7.906-24.258h-7.765v1.327h2.778v27.945H78v1.327h8.192v-1.327h-3.847v-26.47l9.26 28.755h1.283l9.687-28.46-.071 26.175h-2.992v1.327h10.472v-1.327h-3.135c.214-3.245 0 0 0 0zm44.806-27.945h4.203V33.18l-12.253-21.456v-.074h-7.123v1.327h2.565v27.945h-2.565v1.327h8.121v-1.327h-4.274v-25.29l15.6 27.207v-.074.074h1.282V12.977h2.778V11.65h-8.263v1.327h-.071zm11.468 20.793c-1.567 0-2.849 1.474-2.849 3.244 0 1.77 1.282 3.244 2.849 3.244 1.567 0 2.85-1.475 2.85-3.244-.072-1.77-1.283-3.244-2.85-3.244zm20.302-16.443c-.072-.074-.072-.147-.143-.147l-.427-.443a3.52 3.52 0 00-1.781-.442c-2.137 0-3.134 1.106-4.06 2.58-.641.96-1.283 2.213-1.639 3.024 0-.443-.142-1.254-.57-2.507-.641-1.696-1.21-2.286-1.282-2.433h-5.057v1.253h3.205v20.129h-3.205v1.253h11.397v-1.253h-4.488V24.405c.499-1.253 1.211-2.875 2.351-4.645 1.14-1.474 1.71-1.917 2.351-1.917.285 0 .285 1.328.285 1.991v.369c0 2.95.854 3.686 1.923 3.686 1.068 0 1.852-.737 1.852-3.686 0-1.106-.285-2.139-.712-2.876 0 .074 0 0 0 0zm22.082 21.014c-.57 0-.641-.59-.641-.664V16.885h-3.704v17.18c-.072.073-2.494 4.94-5.913 4.94-1.781 0-2.279-.959-2.279-2.065V16.885h-7.052v1.253h3.277v16.664s-.143 5.382 5.556 5.382c3.846 0 5.983-3.613 6.339-4.276v.221c-.071 2.065.642 3.465 1.639 3.465h5.2v-1.253h-2.422z" fill="#fff"/></g><defs><clipPath id="clip0"><path fill="#fff" d="M0 0h208v48H0z"/></clipPath></defs></svg>