<svg width="123" height="84" viewBox="0 0 123 84" fill="none" xmlns="http://www.w3.org/2000/svg">
<path fill-rule="evenodd" clip-rule="evenodd" d="M37.6319 53.231H57.1852C54.345 44.7053 53.198 35.5238 52.925 26.5062H15.6754C14.0915 26.5062 13.3268 25.0306 14.1461 23.6643L23.2673 8.96292C24.7966 6.44893 28.4014 4.64541 31.2962 4.64541H67.7811C70.6758 4.64541 74.226 6.44893 75.8099 8.96292L77.3393 11.4223C78.8686 10.9304 80.3432 10.4385 81.8179 9.892L79.7424 6.55823C77.3392 2.62329 72.3144 0 67.7811 0H31.2962C26.7629 0 21.738 2.62329 19.3348 6.50358L12.5076 17.5433H3.76866C-0.273085 17.5433 -1.58392 23.8829 2.29397 25.0852L6.93651 26.5608L4.86102 29.9493C2.18473 34.2121 1.58393 41.5901 1.58393 48.4763V71.0475C1.58393 72.4138 2.67629 73.5068 4.04175 73.5068H14.583C15.9485 73.5068 17.0409 72.4138 17.0409 71.0475V65.0358H62.4831C61.3361 63.123 60.353 61.1555 59.4245 59.1334H37.6319C36.758 59.1334 36.1026 58.4229 36.1026 57.6031V54.8159C36.048 53.9414 36.758 53.231 37.6319 53.231ZM89.7922 16.6142C98.5311 20.5491 107.925 22.8992 117.429 24.1015C117.21 39.0761 114.698 55.0345 104.594 66.5114C100.443 71.2661 95.3086 74.8731 89.7922 77.7697C84.2211 74.8731 79.1416 71.2661 74.9907 66.5114C64.8863 55.0345 62.3739 39.0215 62.1554 24.1015C71.659 22.8992 81.0533 20.5491 89.7922 16.6142ZM89.7922 10.4385C80.671 14.92 69.7473 17.9258 56.5844 19.0735C56.0382 54.5426 66.6341 73.015 89.7922 84C112.95 73.015 123.546 54.5426 123 19.0735C109.837 17.9258 98.8588 14.92 89.7922 10.4385ZM89.7922 73.5615V45.0332H111.257C112.732 39.2401 113.387 33.1737 113.606 27.2713C105.413 26.0143 97.3841 23.8829 89.7922 20.6584V45.0332H68.3273C70.075 52.0286 73.0244 58.6415 77.7762 64.052C81.1625 67.9323 85.3135 71.0475 89.7922 73.5615ZM14.8561 36.2889L23.2673 39.2947C24.742 39.8413 25.8344 41.2622 25.8344 42.9564C25.8344 45.0878 24.0866 46.8367 21.9565 46.8367H12.9991C9.99512 46.8367 7.59192 44.432 7.59192 41.4262C7.59192 38.4203 9.99512 36.0156 12.9991 36.0156C13.6545 35.961 14.2553 36.0703 14.8561 36.2889Z" fill="white"/>
</svg>
