<svg width="40" height="36" viewBox="0 0 40 36" fill="none" xmlns="http://www.w3.org/2000/svg">
<path d="M35.696 4.23845L35.6968 4.23923C36.7229 5.24751 37.5438 6.44734 38.1132 7.7717C38.7035 9.14986 39.0042 10.6103 39 12.1147V12.1175C39 13.5302 38.7128 15.0238 38.1255 16.5668L38.1246 16.5691C37.6378 17.8571 36.9216 19.2131 35.9966 20.6003C34.5322 22.7936 32.5002 25.1075 29.9485 27.4742C25.7097 31.4025 21.5151 34.1151 21.3544 34.2186L20.259 34.9244L20.258 34.925C20.1013 35.025 19.8989 35.025 19.7421 34.9251L19.741 34.9244L18.6456 34.2186L18.6377 34.2135L18.6297 34.2086L18.6134 34.1982L18.5667 34.1682C18.5274 34.1427 18.4728 34.1071 18.4041 34.0617C18.2666 33.971 18.0733 33.8417 17.8321 33.6767C17.3497 33.3467 16.6767 32.8746 15.8759 32.2824C14.2728 31.0967 12.1653 29.4353 10.0515 27.4742C7.49984 25.1076 5.46811 22.7941 4.00365 20.6008C3.07988 19.2154 2.36676 17.8579 1.87433 16.5664C1.28709 15.0236 1 13.53 1 12.1175C1 10.6111 1.30117 9.1495 1.89155 7.77124C2.45915 6.4465 3.27984 5.24683 4.3069 4.24009L4.30826 4.23875C5.34234 3.22126 6.54502 2.423 7.88027 1.86763L7.88135 1.86718C9.26261 1.29076 10.7244 1.00003 12.2375 1.00003C14.3363 1.00003 16.3825 1.57732 18.1602 2.66679C18.5855 2.92744 18.9889 3.21328 19.3706 3.52435L20.0023 4.0391L20.634 3.52435C21.0157 3.21328 21.4191 2.92742 21.8444 2.66677C23.6221 1.5773 25.6683 1.00003 27.7671 1.00004L27.7694 1.00003C29.2634 0.996575 30.7433 1.29129 32.1232 1.86717L32.1245 1.86771C33.4549 2.42072 34.6674 3.22548 35.696 4.23845Z" stroke="white" stroke-width="2"/>
</svg>
