<svg width="99" height="89" viewBox="0 0 99 89" fill="none" xmlns="http://www.w3.org/2000/svg">
<g clip-path="url(#clip0)">
<path d="M90.9102 38.8675L49.8647 9.8157C49.5995 9.61806 48.7374 9.61806 48.4722 9.8157L8.08975 38.4064C5.6363 40.1192 2.38714 39.7239 0.862021 37.55C-0.663096 35.376 -1.79559e-06 32.2139 2.38714 30.5011L42.7696 1.91044C46.4166 -0.658766 51.9203 -0.658766 55.501 1.91044L96.5465 30.9623C99 32.6751 99.7294 35.8372 98.138 38.0111C96.5465 40.1851 93.3637 40.5803 90.9102 38.8675Z" fill="white"/>
<path d="M12.5325 38.077L49.1353 12.1873L85.8044 38.077H12.5325Z" fill="white"/>
<path d="M30.7013 0.592896H19.6276V23.7816L30.7013 18.5773V0.592896Z" fill="white"/>
<path d="M12.5325 38.077V89H85.8044V38.077H12.5325ZM54.7053 58.4989V74.3094H43.5653V58.4989C40.5151 56.6543 38.5258 53.3605 38.5258 49.5396C38.5258 43.7424 43.3001 38.9992 49.1353 38.9992C54.9705 38.9992 59.7448 43.7424 59.7448 49.5396C59.7448 53.2946 57.7555 56.6543 54.7053 58.4989Z" fill="white"/>
</g>
<defs>
<clipPath id="clip0">
<rect width="99" height="89" fill="white"/>
</clipPath>
</defs>
</svg>
