<svg width="215" height="83" viewBox="0 0 215 83" fill="none" xmlns="http://www.w3.org/2000/svg">
<g clip-path="url(#clip0)">
<path fill-rule="evenodd" clip-rule="evenodd" d="M38.0583 7.96051C36.0675 5.61918 33.6084 3.62906 30.4466 2.22426C27.2848 0.819464 23.5376 0.117066 19.0877 0.117066H4.80118C2.92755 0.117066 1.75652 0.468265 1.17101 1.17066C0.468397 1.99013 0.234192 3.16079 0.234192 4.79972V48.9337C0.234192 50.5726 0.585499 51.7433 1.17101 52.4457C1.75652 53.1481 3.04465 53.4993 4.80118 53.4993H19.9074C24.3573 53.4993 28.1046 52.7969 31.1492 51.275C34.1939 49.7532 36.653 47.763 38.4096 45.3047C40.2832 42.8463 41.5713 39.9196 42.2739 36.6417C43.0937 33.3639 43.445 29.969 43.445 26.457C43.445 22.945 42.9766 19.5501 42.1568 16.2722C41.3371 13.1114 39.9319 10.3018 38.0583 7.96051ZM30.915 33.3639C30.5637 35.4711 29.744 37.2271 28.8072 38.6319C27.7533 40.1537 26.348 41.3244 24.5915 42.1439C22.835 42.9633 20.61 43.4316 18.0338 43.4316H11.8273V10.1848H17.7995C20.4929 10.1848 22.7178 10.653 24.4744 11.4725C26.2309 12.292 27.6361 13.4626 28.6901 14.8674C29.744 16.2722 30.4466 18.0282 30.915 20.0183C31.2663 22.0085 31.5005 24.1157 31.5005 26.457C31.5005 29.0324 31.2663 31.2567 30.915 33.3639ZM134.668 43.8999C134.434 43.6657 134.082 43.6657 133.497 43.6657H114.175C112.652 43.6657 111.364 43.3145 110.428 42.7292C109.491 42.0268 109.022 40.7391 109.022 38.866V1.63893C109.022 0.93653 108.905 0.585331 108.671 0.351199C108.437 0.117066 107.968 0 107.149 0H99.0686C98.4831 0 98.0147 0.117066 97.7805 0.351199C97.5463 0.585331 97.3121 1.0536 97.3121 1.63893V39.5684C97.3121 41.3244 97.5463 42.9633 97.8976 44.7193C98.2489 46.3582 99.0686 47.8801 100.123 49.1678C101.176 50.4556 102.582 51.5092 104.455 52.3286C106.212 53.1481 108.554 53.4993 111.481 53.4993H133.497C134.434 53.4993 134.902 52.914 134.902 51.8604V45.0705C135.019 44.4852 134.902 44.0169 134.668 43.8999ZM170.969 8.42877V1.63893C170.969 0.93653 170.852 0.585331 170.618 0.351199C170.384 0.117066 170.033 0 169.447 0H130.335C129.749 0 129.398 0.117066 129.164 0.351199C128.93 0.585331 128.813 0.93653 128.813 1.63893V8.42877C128.813 9.48237 129.281 9.95063 130.218 9.95063H143.685V51.9774C143.685 52.5628 143.802 53.031 144.153 53.2652C144.387 53.4993 144.856 53.6164 145.441 53.6164H153.638C154.458 53.6164 154.926 53.4993 155.161 53.2652C155.395 53.031 155.512 52.6798 155.512 51.9774V9.95063H169.33C170.501 9.95063 170.969 9.48237 170.969 8.42877ZM214.883 52.0945L199.074 4.21439C198.723 3.27786 198.489 2.57546 198.137 1.99013C197.786 1.4048 197.435 1.0536 196.966 0.702398C196.498 0.351199 196.029 0.234133 195.327 0.117066C194.624 0 193.922 0 193.102 0H188.535C187.715 0 187.13 0.117066 186.544 0.234133C185.959 0.351199 185.49 0.585331 185.022 0.93653C184.553 1.28773 184.202 1.63893 183.851 2.22426C183.499 2.80959 183.265 3.51199 182.914 4.33145L166.988 52.2116C166.871 52.5628 166.871 53.031 166.988 53.2652C167.105 53.6164 167.456 53.7334 168.042 53.7334H176.942C177.644 53.7334 178.113 53.6164 178.464 53.3822C178.698 53.1481 178.932 52.7969 179.167 52.3286L182.094 42.6121H199.542L202.47 52.5628C202.587 53.1481 202.938 53.4993 203.29 53.6164C203.641 53.7334 204.109 53.8505 204.695 53.8505H213.829C214.414 53.8505 214.766 53.6164 214.766 53.2652C215 52.6798 215 52.3286 214.883 52.0945ZM184.905 33.0127L187.832 23.2962L190.76 12.409H191.228L194.039 23.2962L196.966 33.0127H184.905ZM87.5926 43.5487H62.5327V30.2031H84.4308C85.0163 30.2031 85.4847 30.086 85.6018 29.7348C85.836 29.5007 85.836 29.0324 85.836 28.4471V22.4767C85.836 21.7743 85.7189 21.3061 85.6018 21.0719C85.3676 20.8378 85.0163 20.7207 84.4308 20.7207H62.5327V10.0677H86.89C87.4755 10.0677 87.8268 9.95063 88.061 9.7165C88.2952 9.48237 88.4123 9.0141 88.4123 8.42877V1.87306C88.4123 1.17066 88.2952 0.702398 88.1781 0.468265C87.9439 0.234133 87.5926 0.117066 87.0071 0.117066H52.3448C51.7592 0.117066 51.4079 0.234133 51.1737 0.468265C50.9395 0.702398 50.8224 1.0536 50.8224 1.75599V52.0945C50.8224 52.6798 50.9395 53.1481 51.2908 53.3822C51.525 53.6164 51.9934 53.7334 52.579 53.7334H87.5926C88.1781 53.7334 88.6465 53.6164 88.7636 53.2652C88.9978 53.031 89.1149 52.5628 89.1149 51.9774V45.5388C89.1149 44.7193 88.9978 44.2511 88.8807 44.0169C88.7636 43.7828 88.2952 43.5487 87.5926 43.5487Z" fill="white"/>
<path d="M7.96296 71.7616C7.37745 71.4104 6.44063 70.9422 5.26961 70.9422C2.57625 71.0592 0 72.6981 0 77.2637C0 81.5952 2.45915 83 5.0354 83C5.97222 83 6.90904 82.7658 7.61166 82.4146C7.96296 82.1805 8.19717 81.9464 8.19717 81.8293C8.19717 81.7122 8.19717 81.5952 8.08007 81.5952L7.49455 80.0733C7.49455 79.9563 7.37745 79.9563 7.37745 79.9563C7.26035 79.9563 7.02614 80.1904 6.67484 80.3075C6.32353 80.5416 5.85512 80.6587 5.26961 80.6587C4.33279 80.6587 3.74728 80.1904 3.51307 79.6051C3.27887 79.1368 3.04466 78.4344 3.04466 77.1467C3.04466 75.3907 3.39597 74.5712 3.51307 74.3371C3.86438 73.7517 4.33279 73.2835 5.26961 73.2835C5.85512 73.2835 6.32353 73.5176 6.79194 73.7517C7.14325 73.9859 7.26035 74.1029 7.49455 74.1029C7.61166 74.1029 7.61166 73.9859 7.61166 73.9859L8.43137 72.5811C8.43137 72.464 8.54848 72.464 8.54848 72.3469C8.43137 72.2299 8.43137 72.1128 7.96296 71.7616ZM19.2048 71.0592L17.4483 71.4104C17.0969 71.5275 16.9798 71.4104 16.6285 71.8787L14.4036 75.7419C13.9352 76.4443 13.5839 77.1467 12.9984 78.5515H12.8813C12.8813 77.9661 12.9984 76.7955 12.9984 76.0931V71.4104C12.9984 71.0592 12.7642 71.0592 12.6471 71.1763L10.5392 71.6446C10.0708 71.7616 10.0708 71.8787 10.0708 71.9957V82.4146C10.0708 82.6488 10.1879 82.7658 10.4221 82.7658H12.6471C12.8813 82.7658 12.9984 82.6488 13.1155 82.4146L15.2233 78.4344C15.4575 77.8491 15.8088 77.3808 16.6285 75.6248H16.7456C16.6285 77.1467 16.6285 77.6149 16.6285 78.0832V82.4146C16.6285 82.6488 16.7456 82.7658 16.9798 82.7658H19.2048C19.439 82.7658 19.5561 82.6488 19.5561 82.4146V71.5275C19.5561 70.9422 19.439 71.0592 19.2048 71.0592ZM29.744 71.7616C29.1585 71.4104 28.2217 70.9422 27.0507 70.9422C24.3573 70.9422 21.781 72.6981 21.781 77.1467C21.781 81.4781 24.2402 82.8829 26.8164 82.8829C27.7533 82.8829 28.6901 82.6488 29.3927 82.2976C29.744 82.0634 29.9782 81.9464 29.9782 81.7122C29.9782 81.5952 29.9782 81.4781 29.8611 81.4781L29.2756 80.0733C29.2756 79.9563 29.1585 79.9563 29.1585 79.9563C29.0414 79.9563 28.8072 80.1904 28.4559 80.3075C28.1046 80.5416 27.6362 80.6587 27.0507 80.6587C26.1138 80.6587 25.5283 80.1904 25.2941 79.6051C25.0599 79.1368 24.8257 78.4344 24.8257 77.1467C24.8257 75.3907 25.177 74.5712 25.2941 74.3371C25.6454 73.7517 26.1138 73.2835 27.0507 73.2835C27.6362 73.2835 28.1046 73.5176 28.573 73.7517C28.9243 73.9859 29.0414 74.1029 29.2756 74.1029C29.3927 74.1029 29.3927 73.9859 29.3927 73.9859L30.2124 72.464C30.2124 72.3469 30.3295 72.3469 30.3295 72.2299C30.2124 72.2299 30.0953 72.1128 29.744 71.7616ZM39.9319 71.4104H31.7348C31.5005 71.4104 31.3834 71.5275 31.3834 71.7616V73.4005C31.3834 73.6347 31.5005 73.7517 31.7348 73.7517H34.311V82.2976C34.311 82.5317 34.4281 82.6488 34.6623 82.6488H36.8873C37.1215 82.6488 37.2386 82.5317 37.2386 82.2976V73.7517H39.6977C39.8148 73.7517 39.9319 73.7517 40.049 73.4005L40.4003 71.8787C40.2832 71.6446 40.4003 71.4104 39.9319 71.4104ZM45.787 71.0592C42.6253 71.0592 40.8687 73.7517 40.8687 77.2637C40.8687 78.7856 41.22 82.8829 46.0212 82.8829C47.3094 82.8829 48.8317 82.5317 49.6514 81.9464C49.8856 81.8293 50.0027 81.7122 50.0027 81.4781C50.0027 81.361 50.0027 81.361 49.8856 81.244L49.3001 79.9563C49.3001 79.8392 49.183 79.7221 49.0659 79.7221C48.9488 79.7221 48.7146 79.8392 48.4804 79.9563C48.012 80.1904 47.3094 80.4245 46.2554 80.4245C44.3818 80.4245 43.7963 79.2539 43.7963 77.6149H49.8856C50.1198 77.6149 50.354 77.6149 50.354 76.9125C50.354 76.3272 50.354 75.5077 50.1198 74.5712C49.6514 72.9323 48.5975 71.0592 45.787 71.0592ZM47.3094 75.6248H43.7963C43.9134 74.1029 44.3818 73.0493 45.6699 73.0493C46.6068 73.0493 47.0752 73.5176 47.1923 74.4541C47.1923 74.6883 47.3094 75.0395 47.3094 75.6248ZM63.0011 71.7616C63.0011 71.4104 62.7669 71.4104 62.5327 71.4104H60.659C60.5419 71.4104 60.3077 71.4104 60.1906 71.6446L58.4341 76.4443C58.1999 77.0296 57.9657 78.3173 57.8486 78.7856C57.7315 78.3173 57.4973 77.0296 57.2631 76.4443L55.5065 71.6446C55.3894 71.4104 55.1552 71.4104 55.0381 71.4104H53.1645C52.9303 71.4104 52.6961 71.4104 52.6961 71.7616L52.1106 82.2976C52.1106 82.5317 52.1106 82.6488 52.579 82.6488H54.1013C54.3355 82.6488 54.5697 82.6488 54.5697 82.2976L54.8039 75.0395H54.921C55.1552 75.8589 55.3894 76.7955 55.7407 77.6149L56.9118 81.0098C57.0289 81.361 57.146 81.244 57.3802 81.244H58.5512C58.7854 81.244 58.9025 81.244 59.0196 81.0098L60.1906 77.6149C60.4248 76.7955 60.7761 75.8589 61.0103 75.0395H61.1275L61.3617 82.2976C61.3617 82.6488 61.5959 82.6488 61.8301 82.6488H63.3524C63.8208 82.6488 63.8208 82.5317 63.8208 82.2976L63.0011 71.7616ZM78.8099 71.0592L76.7021 71.5275C76.2337 71.6445 76.2337 71.7616 76.2337 71.8787V82.2976C76.2337 82.5317 76.3508 82.6488 76.585 82.6488H78.8099C79.1612 82.6488 79.1612 82.5317 79.1612 82.2976V71.4104C79.2783 70.9422 79.0441 71.0592 78.8099 71.0592ZM73.6574 76.2101C72.6035 75.3907 71.3154 75.2736 70.1443 75.2736H68.8562V71.2934C68.8562 70.9422 68.622 70.9422 68.5049 71.0592L66.7484 71.4104C65.9286 71.6445 65.9286 71.5275 65.9286 71.8787V82.2976C65.9286 82.5317 66.0458 82.6488 66.28 82.6488H69.793C70.9641 82.6488 72.4864 82.6488 73.5403 81.7122C74.5942 80.8928 74.7113 79.7221 74.7113 78.9027C74.8284 77.8491 74.5942 76.9125 73.6574 76.2101ZM70.0272 80.3075H68.8562V77.4979H70.2614C70.7299 77.4979 71.9009 77.4979 71.9009 78.9027C71.9009 80.3075 70.8469 80.3075 70.0272 80.3075ZM92.5109 71.5275C90.9886 71.5275 89.8175 72.2299 89.232 73.4005H89.1149V73.1664C89.3491 70.9422 91.1057 70.1227 91.6912 69.8886L96.3753 67.8984C96.8437 67.6643 96.7266 67.4302 96.7266 67.3131L96.024 65.6742C95.9069 65.323 95.4385 65.5571 95.3214 65.5571L91.1057 67.4302C89.3491 68.2496 88.1781 69.7715 87.7097 71.1763C87.2413 72.464 87.1242 73.9859 87.1242 75.6248C87.1242 77.1467 87.2413 78.7856 87.8268 80.1904C88.9978 82.5317 91.1057 82.8829 92.0425 82.8829C94.6187 82.8829 96.9608 81.1269 96.9608 77.1467C96.9608 73.6347 95.2042 71.5275 92.5109 71.5275ZM92.1596 80.6587C90.403 80.6587 90.2859 78.5515 90.2859 77.1467C90.2859 75.7419 90.403 73.7517 92.1596 73.7517C93.9161 73.7517 94.0332 75.7419 94.0332 77.1467C93.9161 78.6685 93.9161 80.6587 92.1596 80.6587ZM103.636 71.0592C100.474 71.0592 98.7173 73.7517 98.7173 77.2637C98.7173 78.7856 99.0686 82.8829 103.87 82.8829C105.158 82.8829 106.68 82.5317 107.5 81.9464C107.734 81.8293 107.851 81.7122 107.851 81.4781C107.851 81.361 107.851 81.361 107.734 81.244L107.149 79.9563C107.149 79.8392 107.032 79.7221 106.914 79.7221C106.797 79.7221 106.563 79.8392 106.329 79.9563C105.861 80.1904 105.158 80.4245 104.104 80.4245C102.23 80.4245 101.645 79.2539 101.645 77.6149H107.734C108.086 77.6149 108.203 77.6149 108.203 76.9125C108.203 76.3272 108.203 75.5077 107.968 74.5712C107.5 72.9323 106.446 71.0592 103.636 71.0592ZM105.041 75.6248H101.528C101.645 74.1029 102.113 73.0493 103.401 73.0493C104.338 73.0493 104.807 73.5176 104.924 74.4541C105.041 74.6883 105.041 75.0395 105.041 75.6248ZM115.814 76.6784C116.868 76.2101 117.454 75.2736 117.454 74.1029C117.454 73.0493 116.985 72.3469 116.517 71.8787C115.58 71.0592 114.409 70.9422 113.589 70.9422C111.95 70.9422 110.896 71.4104 110.428 71.6446C110.31 71.7616 109.842 71.9957 109.842 72.2299C109.842 72.3469 109.842 72.3469 109.959 72.464L110.662 73.6347C110.662 73.6347 110.779 73.7517 110.896 73.7517C111.013 73.7517 111.13 73.6347 111.481 73.4005C111.716 73.2835 112.418 72.9323 113.238 72.9323C114.175 72.9323 114.76 73.4005 114.76 74.22C114.76 75.5077 113.589 75.6248 112.887 75.6248H112.418C112.184 75.6248 112.067 75.7419 112.067 75.976V77.4979C112.067 77.732 112.184 77.8491 112.418 77.8491H112.887C113.589 77.8491 114.995 77.8491 114.995 79.2539C114.995 79.8392 114.76 80.8928 113.238 80.8928C112.418 80.8928 111.833 80.6586 111.13 80.3075C110.779 80.1904 110.662 80.0733 110.545 80.0733C110.428 80.0733 110.31 80.1904 110.31 80.3075L109.842 81.4781C109.842 81.5952 109.725 81.5952 109.725 81.7122C109.725 82.0634 110.076 82.1805 110.545 82.4146C111.364 82.7658 112.535 83.117 113.589 83.117C116.166 83.117 118.039 81.8293 118.039 79.488C117.571 77.8491 116.751 77.0296 115.814 76.6784ZM124.011 71.0592C121.552 71.0592 119.093 72.8152 119.093 77.0296C119.093 81.244 121.552 83 124.011 83C126.471 83 128.93 81.244 128.93 77.0296C128.93 72.6981 126.588 71.0592 124.011 71.0592ZM124.011 80.6587C122.255 80.6587 122.138 78.6685 122.138 76.9125C122.138 75.1565 122.255 73.1664 124.011 73.1664C125.768 73.1664 125.885 75.1565 125.885 76.9125C125.885 78.6685 125.768 80.6587 124.011 80.6587ZM139.82 71.4104H131.506C131.272 71.4104 131.155 71.4104 131.155 71.7616V82.2976C131.155 82.5317 131.155 82.6488 131.506 82.6488H133.731C133.965 82.6488 134.082 82.5317 134.082 82.2976V73.7517H137.244V82.2976C137.244 82.5317 137.361 82.6488 137.595 82.6488H139.82C140.172 82.6488 140.172 82.5317 140.172 82.2976V71.7616C140.054 71.4104 140.054 71.4104 139.82 71.4104ZM150.711 79.0197V74.6883C150.711 74.3371 150.711 73.2835 150.242 72.464C149.54 71.2934 148.252 71.0592 146.846 71.0592C145.91 71.0592 144.27 71.2934 143.333 71.6446C142.748 71.8787 142.748 71.9957 142.865 72.3469L143.333 73.7517C143.333 73.8688 143.45 73.9859 143.568 73.9859C143.685 73.9859 143.919 73.8688 144.621 73.6347C145.207 73.4005 145.91 73.2835 146.495 73.2835C147.081 73.2835 147.549 73.5176 147.666 73.7517C147.9 74.1029 147.9 74.6883 147.9 74.9224V75.6248C146.612 75.6248 144.504 75.7419 143.333 76.5613C142.865 76.9125 141.928 77.732 141.928 79.488C141.928 81.5952 143.216 82.8829 145.324 82.8829C146.612 82.8829 147.432 82.4146 148.252 81.4781C148.369 81.8293 148.486 82.1805 148.603 82.5317C148.837 82.8829 148.954 82.8829 149.071 82.7658L150.945 82.0634C151.062 82.0634 151.179 81.9464 151.179 81.8293C151.179 81.7122 151.062 81.5952 150.945 81.1269C150.711 80.4245 150.711 79.7221 150.711 79.0197ZM148.017 79.9563C147.549 80.5416 146.964 80.7757 146.378 80.7757C145.558 80.7757 144.856 80.1904 144.856 79.2539C144.856 77.732 146.495 77.3808 148.017 77.4979V79.9563ZM160.664 71.7616C160.079 71.4104 159.142 70.9422 157.971 70.9422C155.278 70.9422 152.702 72.6981 152.702 77.1467C152.702 81.4781 155.161 82.8829 157.737 82.8829C158.674 82.8829 159.611 82.6488 160.313 82.2976C160.664 82.0634 160.899 81.9464 160.899 81.7122C160.899 81.5952 160.899 81.4781 160.782 81.4781L160.196 79.9563C160.196 79.8392 160.079 79.8392 160.079 79.8392C159.962 79.8392 159.728 80.0733 159.376 80.1904C159.025 80.4245 158.557 80.5416 157.971 80.5416C157.034 80.5416 156.449 80.0733 156.215 79.488C155.98 79.0197 155.746 78.3173 155.746 77.0296C155.746 75.2736 156.097 74.4541 156.215 74.22C156.566 73.6347 157.034 73.1664 157.971 73.1664C158.557 73.1664 159.025 73.4005 159.493 73.6347C159.845 73.8688 159.962 73.9859 160.196 73.9859C160.313 73.9859 160.313 73.8688 160.313 73.8688L161.133 72.3469C161.133 72.2299 161.25 72.2299 161.25 72.1128C161.25 72.2299 161.133 72.1128 160.664 71.7616ZM171.555 71.0592L169.447 71.5275C168.979 71.6445 168.979 71.7616 168.979 71.8787V75.6248H165.7V71.4104C165.7 71.0592 165.466 71.0592 165.349 71.1763L163.592 71.5275C162.772 71.6445 162.889 71.7616 162.889 71.9957V82.4146C162.889 82.6488 163.007 82.7658 163.241 82.7658H165.466C165.817 82.7658 165.817 82.6488 165.817 82.4146V77.9661H169.096V82.4146C169.096 82.6488 169.213 82.7658 169.447 82.7658H171.672C172.023 82.7658 172.023 82.6488 172.023 82.4146V71.5275C171.906 70.9422 171.789 71.0592 171.555 71.0592ZM179.05 71.0592C176.59 71.0592 174.131 72.8152 174.131 77.0296C174.131 81.244 176.59 83 179.05 83C181.509 83 183.968 81.244 183.968 77.0296C183.968 72.6981 181.509 71.0592 179.05 71.0592ZM179.05 80.6587C177.293 80.6587 177.176 78.6685 177.176 76.9125C177.176 75.1565 177.293 73.1664 179.05 73.1664C180.806 73.1664 180.923 75.1565 180.923 76.9125C180.806 78.6685 180.806 80.6587 179.05 80.6587ZM193.453 71.7616C192.868 71.4104 191.931 70.9422 190.76 70.9422C188.066 70.9422 185.49 72.6981 185.49 77.1467C185.49 81.4781 187.949 82.8829 190.526 82.8829C191.462 82.8829 192.399 82.6488 193.102 82.2976C193.453 82.0634 193.687 81.9464 193.687 81.7122C193.687 81.5952 193.687 81.4781 193.57 81.4781L192.985 79.9563C192.985 79.8392 192.868 79.8392 192.868 79.8392C192.751 79.8392 192.516 80.0733 192.165 80.1904C191.697 80.4245 191.345 80.5416 190.76 80.5416C189.823 80.5416 189.237 80.0733 189.003 79.488C188.769 79.0197 188.535 78.3173 188.535 77.0296C188.535 75.2736 188.886 74.4541 189.003 74.22C189.355 73.6347 189.823 73.1664 190.76 73.1664C191.345 73.1664 191.814 73.4005 192.282 73.6347C192.633 73.8688 192.751 73.9859 192.985 73.9859C193.102 73.9859 193.102 73.8688 193.102 73.8688L193.922 72.3469C193.922 72.2299 194.039 72.2299 194.039 72.1128C194.039 72.2299 193.922 72.1128 193.453 71.7616ZM203.641 71.4104H195.444C195.21 71.4104 195.093 71.5275 195.093 71.7616V73.4005C195.093 73.6347 195.21 73.7517 195.444 73.7517H198.02V82.2976C198.02 82.5317 198.137 82.6488 198.371 82.6488H200.596C200.948 82.6488 200.948 82.5317 200.948 82.2976V73.7517H203.407C203.524 73.7517 203.641 73.7517 203.758 73.4005L204.109 71.8787C204.109 71.6446 204.109 71.4104 203.641 71.4104ZM214.532 71.0592L212.775 71.4104C212.424 71.5275 212.307 71.4104 211.955 71.8787L209.73 75.7419C209.262 76.4443 208.911 77.1467 208.325 78.5515H208.208C208.208 77.9661 208.325 76.7955 208.325 76.0931V71.4104C208.325 71.0592 208.091 71.0592 207.974 71.1763L205.866 71.6446C205.398 71.7616 205.398 71.8787 205.398 71.9957V82.4146C205.398 82.6488 205.515 82.7658 205.749 82.7658H207.974C208.325 82.7658 208.325 82.6488 208.442 82.4146L210.55 78.4344C210.901 77.8491 211.136 77.3808 211.955 75.6248H212.072C211.955 77.1467 211.955 77.6149 211.955 78.0832V82.4146C211.955 82.6488 212.072 82.7658 212.307 82.7658H214.532C214.883 82.7658 214.883 82.6488 214.883 82.4146V71.5275C214.883 70.9422 214.766 71.0592 214.532 71.0592Z" fill="white"/>
</g>
<defs>
<clipPath id="clip0">
<rect width="215" height="83" fill="white"/>
</clipPath>
</defs>
</svg>
