<svg width="11" height="17" viewBox="0 0 11 17" fill="none" xmlns="http://www.w3.org/2000/svg">
<path d="M5.0425 8.66469C7.30802 8.66469 9.19595 6.77676 9.19595 4.51124C9.19595 2.24573 7.30802 0.357788 5.0425 0.357788C2.77698 0.357788 0.889052 2.24573 0.889052 4.51124C0.889052 6.77676 2.77698 8.66469 5.0425 8.66469ZM5.0425 2.43452C6.17526 2.43452 7.11923 3.37849 7.11923 4.51124C7.11923 5.644 6.17526 6.58797 5.0425 6.58797C3.90974 6.58797 2.96578 5.644 2.96578 4.51124C2.96578 3.37849 3.90974 2.43452 5.0425 2.43452ZM9.85672 9.23107C9.66793 8.75909 9.00716 8.38151 8.06319 9.04228C6.93043 9.98625 5.0425 9.98625 5.0425 9.98625C5.0425 9.98625 3.15457 9.98625 2.02181 9.04228C1.17224 8.38151 0.511467 8.75909 0.228278 9.23107C-0.149309 10.0806 0.322673 10.4582 1.36104 11.119C2.2106 11.6854 3.43776 11.8742 4.28733 11.9686L3.62655 12.6293C2.68259 13.5733 1.83302 14.4229 1.17224 15.0837C0.794657 15.4612 0.794657 16.0276 1.17224 16.4052L1.26664 16.4996C1.64423 16.8772 2.21061 16.8772 2.58819 16.4996L5.0425 14.0453C5.98647 14.9893 6.83604 15.8388 7.49681 16.4996C7.8744 16.8772 8.44078 16.8772 8.81836 16.4996L8.91276 16.4052C9.29035 16.0276 9.29035 15.4612 8.91276 15.0837L6.45845 12.6293L5.79767 11.9686C6.55285 11.8742 7.78 11.6854 8.72397 11.119C9.85673 10.4582 10.3287 9.98625 9.85672 9.23107Z" fill="black" fill-opacity="0.8"/>
</svg>
