<svg width="118" height="121" viewBox="0 0 118 121" fill="none" xmlns="http://www.w3.org/2000/svg">
<path d="M62.4023 29.2527C70.5345 29.2527 77.0071 22.7706 77.0071 14.6264C77.0071 6.48214 70.5345 0 62.4023 0C54.2701 0 47.7975 6.48214 47.7975 14.6264C47.7975 22.6044 54.436 29.2527 62.4023 29.2527Z" fill="white"/>
<path d="M114.847 67.8132H111.527C109.37 61.9959 105.387 56.6772 99.91 52.3558C97.2546 50.195 97.7525 47.8681 98.4163 46.7047C99.0802 45.0426 100.076 43.3805 101.072 42.0508C104.059 38.3942 102.068 37.397 100.076 37.397C96.2588 37.397 91.7778 38.7266 87.4627 42.217C85.9691 43.2143 84.8073 44.0453 81.3221 43.2143C76.0113 41.7184 70.0366 40.8874 64.0619 40.8874C38.6695 40.8874 17.9241 55.0151 15.1027 73.2981C13.2771 74.2953 11.2855 74.7939 9.29395 74.9602C7.46835 75.1264 5.47679 74.794 3.81716 73.7967C2.65542 73.1319 1.99156 72.1346 1.49367 70.8049L1.8256 68.9766C2.48945 68.3118 2.82138 68.3118 3.15331 69.1428C2.15752 68.8104 1.65963 70.4725 2.65542 70.8049C3.81716 71.1374 4.31505 70.9711 5.31083 70.4725C5.47679 70.3063 5.80872 69.9739 5.64276 69.8077C5.14487 64.489 -2.48945 67.4808 0.331927 72.9657C3.15331 77.6195 9.95781 77.2871 14.9367 75.1264C14.9367 75.7912 14.7707 76.6222 14.7707 77.4533C14.7707 89.7527 22.903 100.556 35.3502 107.205C36.8439 108.036 40.1632 110.861 40.1632 113.687C40.1632 116.679 40.1632 119.338 40.1632 119.338C40.1632 120.335 40.827 121 41.8228 121H52.2785C53.1083 121 53.9381 120.335 53.9381 119.338C53.9381 119.338 53.9381 118.174 53.9381 116.512C53.9381 114.85 54.1041 113.188 57.4233 113.687C59.5809 113.853 61.9044 114.019 64.2279 114.019C66.3854 114.019 68.5429 113.853 70.7004 113.687C73.1899 113.188 74.5176 113.853 74.5176 116.346C74.5176 118.839 74.5176 119.338 74.5176 119.338C74.5176 120.335 75.1814 121 76.1772 121H86.6329C87.4627 121 88.2925 120.335 88.2925 119.338C88.2925 119.338 88.2925 117.343 88.2925 114.019C88.2925 110.529 89.4543 108.867 91.9437 107.537C101.238 102.717 108.374 95.57 111.527 87.2596H115.013C116.838 87.2596 118.166 86.2624 118.166 84.9327V70.1401C118 68.9766 116.672 67.8132 114.847 67.8132ZM88.4585 72.1346C85.4712 72.1346 82.9817 69.6415 82.9817 66.6497C82.9817 63.658 85.4712 61.1648 88.4585 61.1648C91.4458 61.1648 93.9353 63.658 93.9353 66.6497C93.9353 69.6415 91.6118 72.1346 88.4585 72.1346Z" fill="white"/>
</svg>
