<svg width="65" height="35" viewBox="0 0 65 35" fill="none" xmlns="http://www.w3.org/2000/svg">
<path d="M7.7873 22.3287H4.92666V34.5616H0.158936V0.760254H8.74085C15.0978 0.760254 18.5941 4.62327 18.5941 11.3835C18.5941 16.5342 16.3692 20.3972 12.555 21.6849L19.8655 34.5616H14.4621L7.7873 22.3287ZM4.92666 17.5H8.74085C12.2372 17.5 13.8264 15.2466 13.8264 11.3835C13.8264 7.52053 11.9193 5.2671 8.74085 5.2671H4.92666V17.5Z" fill="white"/>
<path d="M40.8435 29.7329V34.2397H23.9976V0.760254H40.2078V5.2671H28.7653V14.9246H39.2543V19.4315H28.7653V29.7329H40.8435Z" fill="white"/>
<path d="M45.2934 24.5822V10.7397C45.2934 3.97944 49.1076 0.116425 54.8289 0.116425C60.868 0.116425 64.3643 3.65752 64.6822 10.4178H59.9144C59.5966 6.55478 58.0074 4.62327 54.8289 4.62327C51.9682 4.62327 50.0612 6.55478 50.0612 10.4178V24.2603C50.0612 28.1233 51.9682 30.0548 54.8289 30.0548C58.0074 30.0548 59.9145 28.1233 60.2323 24.2603H65C64.6822 31.0205 61.1858 34.5616 54.8289 34.5616C49.1076 34.8836 45.2934 31.3425 45.2934 24.5822Z" fill="white"/>
</svg>
