<svg width="58" height="452" viewBox="0 0 58 452" fill="none" xmlns="http://www.w3.org/2000/svg">
<path d="M5.35224e-06 3.17035L28.5469 3.17035L28.5469 448.377L4.32068e-08 448.377L0 452L31.7188 452L31.7188 3.78242e-07L5.39005e-06 0L5.35224e-06 3.17035Z" fill="white"/>
<path d="M5.40085e-08 375.459L0 379.988L23.5625 379.988L23.5625 375.459L5.40085e-08 375.459Z" fill="white"/>
<path d="M8.15625 391.764L8.15625 394.028L23.1094 394.028L23.1094 391.764L8.15625 391.764Z" fill="white"/>
<path d="M8.15625 406.709L8.15625 408.974L23.1094 408.974L23.1094 406.709L8.15625 406.709Z" fill="white"/>
<path d="M8.15625 422.108L8.15625 424.373L23.1094 424.373L23.1094 422.108L8.15625 422.108Z" fill="white"/>
<path d="M8.15625 437.054L8.15625 439.319L23.1094 439.319L23.1094 437.054L8.15625 437.054Z" fill="white"/>
<path d="M8.15625 315.675L8.15625 317.94L23.1094 317.94L23.1094 315.675L8.15625 315.675Z" fill="white"/>
<path d="M8.15625 331.074L8.15625 333.339L23.1094 333.339L23.1094 331.074L8.15625 331.074Z" fill="white"/>
<path d="M8.15625 346.02L8.15625 348.285L23.1094 348.285L23.1094 346.02L8.15625 346.02Z" fill="white"/>
<path d="M8.15625 361.419L8.15625 363.683L23.1094 363.683L23.1094 361.419L8.15625 361.419Z" fill="white"/>
<path d="M8.15625 240.04L8.15625 242.305L23.1094 242.305L23.1094 240.04L8.15625 240.04Z" fill="white"/>
<path d="M8.15625 254.986L8.15625 257.251L23.1094 257.251L23.1094 254.986L8.15625 254.986Z" fill="white"/>
<path d="M8.15625 270.385L8.15625 272.649L23.1094 272.649L23.1094 270.385L8.15625 270.385Z" fill="white"/>
<path d="M8.15625 285.331L8.15625 287.595L23.1094 287.595L23.1094 285.331L8.15625 285.331Z" fill="white"/>
<path d="M8.15625 163.952L8.15625 166.216L23.1094 166.216L23.1094 163.952L8.15625 163.952Z" fill="white"/>
<path d="M8.15625 179.351L8.15625 181.615L23.1094 181.615L23.1094 179.351L8.15625 179.351Z" fill="white"/>
<path d="M8.15625 194.297L8.15625 196.561L23.1094 196.561L23.1094 194.297L8.15625 194.297Z" fill="white"/>
<path d="M8.15625 209.695L8.15625 211.96L23.1094 211.96L23.1094 209.695L8.15625 209.695Z" fill="white"/>
<path d="M5.40084e-08 223.736L0 228.265L23.5625 228.265L23.5625 223.736L5.40084e-08 223.736Z" fill="white"/>
<path d="M8.15625 88.3167L8.15625 90.5812L23.1094 90.5812L23.1094 88.3167L8.15625 88.3167Z" fill="white"/>
<path d="M8.15625 103.263L8.15625 105.527L23.1094 105.527L23.1094 103.263L8.15625 103.263Z" fill="white"/>
<path d="M8.15625 118.661L8.15625 120.926L23.1094 120.926L23.1094 118.661L8.15625 118.661Z" fill="white"/>
<path d="M8.15625 133.607L8.15625 135.872L23.1094 135.872L23.1094 133.607L8.15625 133.607Z" fill="white"/>
<path d="M5.40084e-08 147.647L0 152.176L23.5625 152.176L23.5625 147.647L5.40084e-08 147.647Z" fill="white"/>
<path d="M8.15625 12.6814L8.15625 14.9459L23.1094 14.9459L23.1094 12.6814L8.15625 12.6814Z" fill="white"/>
<path d="M8.15625 27.6273L8.15625 29.8918L23.1094 29.8918L23.1094 27.6273L8.15625 27.6273Z" fill="white"/>
<path d="M8.15625 43.0261L8.15625 45.2906L23.1094 45.2906L23.1094 43.0261L8.15625 43.0261Z" fill="white"/>
<path d="M8.15625 57.972L8.15625 60.2365L23.1094 60.2365L23.1094 57.972L8.15625 57.972Z" fill="white"/>
<path d="M5.4008e-08 72.0121L0 76.5411L23.5625 76.5411L23.5625 72.0121L5.4008e-08 72.0121Z" fill="white"/>
<path d="M5.40086e-08 299.371L0 303.9L23.5625 303.9L23.5625 299.371L5.40086e-08 299.371Z" fill="white"/>
<path d="M49.8438 215.583L43.9531 226L49.8438 235.964L58 235.964L58 215.583L49.8438 215.583Z" fill="white"/>
</svg>
