<svg width="809" height="249" viewBox="0 0 809 249" fill="none" xmlns="http://www.w3.org/2000/svg">
<path d="M73.192 34.6H90.76V12.712C90.76 12.712 77.224 0.903993 53.752 0.903993C21.928 0.903993 0.04 23.08 0.04 52.744C0.04 82.12 21.64 104.296 54.328 104.296C79.096 104.296 90.76 91.48 90.76 91.48V69.88H73.192V84.136C69.016 86.296 62.392 88.6 53.896 88.6C32.152 88.6 18.904 73.192 18.904 52.6C18.904 31.864 32.44 16.6 53.608 16.6C62.248 16.6 68.872 19.048 73.192 21.064V34.6ZM193.105 103H236.305V89.752H224.065V15.448H236.305V2.19999H123.985V15.448H136.081V89.752H123.985V103H167.041V89.752H154.945V16.168H205.345V89.752H193.105V103ZM295.493 14.296H308.453L277.637 89.752H264.821V103H291.749L301.685 78.52H346.325L356.261 103H383.189V89.752H370.229L334.661 2.19999H295.493V14.296ZM324.005 23.8L340.565 64.552H307.301L324.005 23.8ZM477.601 34.6H495.169V12.712C495.169 12.712 481.633 0.903993 458.161 0.903993C426.337 0.903993 404.449 23.08 404.449 52.744C404.449 82.12 426.049 104.296 458.737 104.296C483.505 104.296 495.169 91.48 495.169 91.48V69.88H477.601V84.136C473.425 86.296 466.801 88.6 458.305 88.6C436.561 88.6 423.313 73.192 423.313 52.6C423.313 31.864 436.849 16.6 458.017 16.6C466.657 16.6 473.281 19.048 477.601 21.064V34.6ZM528.394 15.448H540.49V89.752H528.394V103H559.354L612.634 29.848V89.752H600.394V103H643.594V89.752H631.354V15.448H643.594V2.19999H612.634L559.354 75.352V15.448H571.45V2.19999H528.394V15.448ZM707.926 51.448H718.582V89.752H707.926V103H736.15L769.558 60.808V89.752H758.902V103H797.926V89.752H787.126V51.448H797.926V38.2H769.558L736.15 80.392V51.448H746.95V38.2H707.926V51.448ZM73.192 178.6H90.76V156.712C90.76 156.712 77.224 144.904 53.752 144.904C21.928 144.904 0.04 167.08 0.04 196.744C0.04 226.12 21.64 248.296 54.328 248.296C79.096 248.296 90.76 235.48 90.76 235.48V213.88H73.192V228.136C69.016 230.296 62.392 232.6 53.896 232.6C32.152 232.6 18.904 217.192 18.904 196.6C18.904 175.864 32.44 160.6 53.608 160.6C62.248 160.6 68.872 163.048 73.192 165.064V178.6ZM103.681 196.6C103.681 226.12 126.577 248.296 156.817 248.296C187.201 248.296 210.097 226.12 210.097 196.6C210.097 167.08 187.201 144.904 156.817 144.904C126.577 144.904 103.681 167.08 103.681 196.6ZM122.545 196.6C122.545 175.864 136.945 160.6 156.817 160.6C176.833 160.6 191.233 175.864 191.233 196.6C191.233 217.336 176.833 232.6 156.817 232.6C136.945 232.6 122.545 217.336 122.545 196.6ZM295.618 146.2L269.266 181.192L243.058 146.2H218.722V159.448H231.394L258.466 195.592L229.666 233.752H216.994V247H241.33L269.266 209.848L297.202 247H321.826V233.752H308.866L280.066 195.592L307.282 159.448H319.954V146.2H295.618ZM329.353 159.448H341.449V233.752H329.353V247H375.577V233.752H360.313V207.112H382.201C402.793 207.112 417.481 194.44 417.481 176.584C417.481 158.872 402.793 146.2 382.201 146.2H329.353V159.448ZM382.201 160.168C392.137 160.168 398.617 167.224 398.617 176.584C398.617 185.944 392.137 193.144 382.201 193.144H360.313V160.168H382.201ZM445.09 158.296H458.05L427.234 233.752H414.418V247H441.346L451.282 222.52H495.922L505.858 247H532.786V233.752H519.826L484.258 146.2H445.09V158.296ZM473.602 167.8L490.162 208.552H456.898L473.602 167.8ZM608.848 247H652.048V233.752H639.808V159.448H652.048V146.2H608.848V159.448H621.088V188.248H570.688V159.448H582.784V146.2H539.728V159.448H551.824V233.752H539.728V247H582.784V233.752H570.688V202.072H621.088V233.752H608.848V247ZM659.541 159.448H671.637V233.752H659.541V247H690.501L743.781 173.848V233.752H731.541V247H774.741V233.752H762.501V159.448H774.741V146.2H743.781L690.501 219.352V159.448H702.597V146.2H659.541V159.448ZM786.339 237.352C786.339 243.4 791.379 248.296 797.427 248.296C803.331 248.296 808.371 243.4 808.371 237.352C808.371 231.304 803.331 226.408 797.427 226.408C791.379 226.408 786.339 231.304 786.339 237.352Z" fill="white"/>
</svg>
