<svg width="109" height="33" viewBox="0 0 109 33" fill="none" xmlns="http://www.w3.org/2000/svg">
<path d="M9.86424 4.49476H12.2332V1.57509C12.2332 1.57509 10.4079 0 7.24284 0C2.95151 0 0 2.95809 0 6.91502C0 10.8335 2.91267 13.7916 7.32051 13.7916C10.6604 13.7916 12.2332 12.0821 12.2332 12.0821V9.20082H9.86424V11.1024C9.30113 11.3906 8.40791 11.6979 7.26226 11.6979C4.33017 11.6979 2.54373 9.64261 2.54373 6.89581C2.54373 4.1298 4.36901 2.09371 7.22342 2.09371C8.38849 2.09371 9.28171 2.42026 9.86424 2.68917V4.49476Z" fill="white"/>
<path d="M26.034 13.6187H31.8593V11.8516H30.2088V1.94005H31.8593V0.172875H16.7134V1.94005H18.3445V11.8516H16.7134V13.6187H22.5193V11.8516H20.8882V2.03609H27.6845V11.8516H26.034V13.6187Z" fill="white"/>
<path d="M39.8406 1.78638H41.5882L37.4328 11.8516H35.7046V13.6187H39.3358L40.6756 10.3533H46.6951L48.0349 13.6187H51.6661V11.8516H49.9185L45.1223 0.172875H39.8406V1.78638ZM43.6853 3.05413L45.9184 8.4901H41.4329L43.6853 3.05413Z" fill="white"/>
<path d="M64.3972 4.49476H66.7661V1.57509C66.7661 1.57509 64.9409 0 61.7758 0C57.4844 0 54.5329 2.95809 54.5329 6.91502C54.5329 10.8335 57.4456 13.7916 61.8534 13.7916C65.1933 13.7916 66.7661 12.0821 66.7661 12.0821V9.20082H64.3972V11.1024C63.834 11.3906 62.9408 11.6979 61.7952 11.6979C58.8631 11.6979 57.0766 9.64261 57.0766 6.89581C57.0766 4.1298 58.9019 2.09371 61.7563 2.09371C62.9214 2.09371 63.8146 2.42026 64.3972 2.68917V4.49476Z" fill="white"/>
<path d="M71.2463 1.94005H72.8774V11.8516H71.2463V13.6187H75.4212L82.6058 3.86089V11.8516H80.9552V13.6187H86.7806V11.8516H85.1301V1.94005H86.7806V0.172875H82.6058L75.4212 9.93073V1.94005H77.0523V0.172875H71.2463V1.94005Z" fill="white"/>
<path d="M95.4555 6.74214H96.8924V11.8516H95.4555V13.6187H99.2614L103.766 7.99069V11.8516H102.329V13.6187H107.592V11.8516H106.135V6.74214H107.592V4.97497H103.766L99.2614 10.603V6.74214H100.718V4.97497H95.4555V6.74214Z" fill="white"/>
<path d="M9.86424 23.7031H12.2332V20.7835C12.2332 20.7835 10.4079 19.2084 7.24284 19.2084C2.95151 19.2084 0 22.1665 0 26.1234C0 30.0419 2.91267 33 7.32051 33C10.6604 33 12.2332 31.2905 12.2332 31.2905V28.4092H9.86424V30.3108C9.30113 30.599 8.40791 30.9063 7.26226 30.9063C4.33017 30.9063 2.54373 28.851 2.54373 26.1042C2.54373 23.3382 4.36901 21.3021 7.22342 21.3021C8.38849 21.3021 9.28171 21.6286 9.86424 21.8976V23.7031Z" fill="white"/>
<path d="M13.9755 26.1042C13.9755 30.0419 17.0629 33 21.1407 33C25.2378 33 28.3253 30.0419 28.3253 26.1042C28.3253 22.1665 25.2378 19.2084 21.1407 19.2084C17.0629 19.2084 13.9755 22.1665 13.9755 26.1042ZM16.5192 26.1042C16.5192 23.3382 18.461 21.3021 21.1407 21.3021C23.8398 21.3021 25.7815 23.3382 25.7815 26.1042C25.7815 28.8702 23.8398 30.9063 21.1407 30.9063C18.461 30.9063 16.5192 28.8702 16.5192 26.1042Z" fill="white"/>
<path d="M39.8575 19.3813L36.304 24.0489L32.77 19.3813H29.4884V21.1484H31.1971L34.8477 25.9697L30.9641 31.06H29.2553V32.8271H32.537L36.304 27.8714L40.0711 32.8271H43.3915V31.06H41.6439L37.7603 25.9697L41.4303 21.1484H43.1391V19.3813H39.8575Z" fill="white"/>
<path d="M44.4065 21.1484H46.0376V31.06H44.4065V32.8271H50.6397V31.06H48.5814V27.5064H51.5329C54.3096 27.5064 56.2902 25.8161 56.2902 23.4342C56.2902 21.0716 54.3096 19.3813 51.5329 19.3813H44.4065V21.1484ZM51.5329 21.2445C52.8727 21.2445 53.7465 22.1857 53.7465 23.4342C53.7465 24.6828 52.8727 25.6432 51.5329 25.6432H48.5814V21.2445H51.5329Z" fill="white"/>
<path d="M60.0131 20.9948H61.7607L57.6053 31.06H55.8771V32.8271H59.5083L60.8481 29.5617H66.8676L68.2075 32.8271H71.8386V31.06H70.091L65.2948 19.3813H60.0131V20.9948ZM63.8579 22.2625L66.0909 27.6985H61.6054L63.8579 22.2625Z" fill="white"/>
<path d="M82.0953 32.8271H87.9206V31.06H86.2701V21.1484H87.9206V19.3813H82.0953V21.1484H83.7458V24.9901H76.9496V21.1484H78.5807V19.3813H72.7747V21.1484H74.4058V31.06H72.7747V32.8271H78.5807V31.06H76.9496V26.8341H83.7458V31.06H82.0953V32.8271Z" fill="white"/>
<path d="M88.9309 21.1484H90.562V31.06H88.9309V32.8271H93.1058L100.29 23.0693V31.06H98.6398V32.8271H104.465V31.06H102.815V21.1484H104.465V19.3813H100.29L93.1058 29.1391V21.1484H94.7369V19.3813H88.9309V21.1484Z" fill="white"/>
<path d="M106.029 31.5402C106.029 32.3469 106.709 33 107.524 33C108.32 33 109 32.3469 109 31.5402C109 30.7334 108.32 30.0803 107.524 30.0803C106.709 30.0803 106.029 30.7334 106.029 31.5402Z" fill="white"/>
</svg>
