<svg width="17" height="14" viewBox="0 0 17 14" fill="none" xmlns="http://www.w3.org/2000/svg">
<path d="M16.8965 1.85044C16.3302 2.13363 15.6694 2.32242 15.0086 2.32242C15.6694 1.94483 16.2358 1.28405 16.4246 0.528875C15.7638 0.906461 15.103 1.18965 14.3478 1.28405C13.7814 0.623275 12.9319 0.245697 11.9879 0.245697C10.1944 0.245697 8.68403 1.66165 8.68403 3.54958C8.68403 3.83277 8.68403 4.02155 8.77843 4.30474C6.04093 4.21034 3.68102 2.8888 2.07628 0.90647C1.79309 1.37845 1.60429 1.94483 1.60429 2.51121C1.60429 3.64397 2.17067 4.68232 3.02024 5.2487C2.45386 5.2487 1.98188 5.05992 1.5099 4.87112C1.5099 6.47586 2.64266 7.79741 4.153 8.0806C3.86981 8.175 3.58662 8.175 3.30343 8.175C3.11464 8.175 2.92584 8.175 2.64266 8.0806C3.02024 9.40215 4.2474 10.3461 5.66335 10.3461C4.53059 11.1957 3.11464 11.7621 1.60429 11.7621C1.3211 11.7621 1.03791 11.7621 0.849121 11.7621C2.26507 12.706 3.96421 13.2724 5.85214 13.2724C11.8935 13.2724 15.103 8.2694 15.103 4.02156C15.103 3.83277 15.103 3.73836 15.103 3.64396C15.9526 3.07758 16.4246 2.51121 16.8965 1.85044Z" fill="black" fill-opacity="0.8"/>
</svg>
