<svg width="13" height="13" viewBox="0 0 13 13" fill="none" xmlns="http://www.w3.org/2000/svg">
<path d="M11.6022 6.75906C11.1302 6.28708 10.7526 5.90949 9.80864 5.81509V5.7207C10.4694 5.43751 10.9414 5.15432 11.2246 4.68234C11.6022 4.21035 11.6966 3.73837 11.6966 3.07759C11.6966 2.60561 11.6022 2.13363 11.319 1.75604C11.0358 1.37846 10.6582 1.00087 10.1862 0.812077C9.71424 0.623284 9.24226 0.43449 8.67588 0.340094C8.2039 0.245697 7.07114 0.245697 5.93838 0.245697H0.935364V12.4229H6.78795C7.73192 12.4229 8.58148 12.3285 9.24226 12.2341C9.90304 12.0453 10.4694 11.8565 10.9414 11.4789C11.4134 11.1957 11.791 10.8181 11.9798 10.3461C12.263 9.87415 12.3573 9.40216 12.3573 8.74139C12.3573 7.89182 12.0742 7.23104 11.6022 6.75906ZM4.52243 2.60561H6.03278C6.50476 2.60561 6.97674 2.70001 7.35433 2.7944C7.73191 2.9832 7.92071 3.26639 7.92071 3.83277C7.92071 4.30475 7.73191 4.58794 7.44873 4.77673C7.16554 4.96553 6.78795 5.05992 6.31597 5.05992H4.52243V2.60561ZM7.63752 9.77975C7.35433 9.87415 6.97674 9.96854 6.50476 9.96854H4.52243V7.04225H6.59916C7.07114 7.04225 7.44873 7.13665 7.63752 7.23104C8.1095 7.41984 8.29829 7.79742 8.29829 8.3638C8.39269 9.11897 8.1095 9.59096 7.63752 9.77975Z" fill="black" fill-opacity="0.8"/>
</svg>
