<svg width="208" height="48" viewBox="0 0 208 48" fill="none" xmlns="http://www.w3.org/2000/svg">
<g clip-path="url(#clip0)">
<path d="M60.1205 1.91705V0H47.1562V1.91705H53.4247L44.0219 36.2028L34.9041 1.91705H40.5315V0H24.1479V1.91705H29.2055L19.8027 36.2028L10.7562 1.91705H16.3836V0H0V1.91705H4.13151L16.3123 48H18.3781L29.7753 6.56221L30.0603 5.08756L40.4603 48.0737H42.526L55.2767 1.91705H60.1205ZM64.8219 11.6498C64.7507 11.6498 64.7507 11.6498 64.8219 11.6498C58.126 11.6498 54.2082 15.9263 54.2082 23.8894V30.6728C54.2794 38.6359 58.126 42.9124 64.7507 42.9124C71.3753 42.9124 75.2931 38.6359 75.2931 30.6728V23.8894C75.3644 15.9263 71.4466 11.6498 64.8219 11.6498ZM70.1644 34.0645C70.1644 40.6267 68.3836 41.5853 64.7507 41.5853C61.1178 41.5853 59.337 40.6267 59.337 34.212V20.3502C59.337 13.9355 61.189 12.977 64.7507 12.977C68.3836 12.977 70.1644 13.9355 70.1644 20.4977V34.0645ZM124.871 11.0599H123.233L114.186 40.9217H111.337V42.2488H119.814V40.9217H115.753L118.531 31.8525H126.225L128.647 40.9217H125.441V42.2488H135.699V40.9217H132.921L124.871 11.0599ZM118.888 30.5991L122.449 18.7281H122.734L125.868 30.5991H118.888ZM106.849 40.9217V12.977H109.627V11.6498H101.792L93.4575 35.9078L85.5507 11.6498H77.7863V12.977H80.5644V40.9217H78V42.2488H86.1918V40.9217H82.3452V14.4516L91.6055 43.2074H92.8877L102.575 14.7465L102.504 40.9217H99.5123V42.2488H109.984V40.9217C109.984 40.9217 108.488 40.9217 106.849 40.9217C107.063 37.6774 106.849 40.9217 106.849 40.9217ZM151.655 12.977H155.858V33.1797L143.605 11.7235V11.6498H136.482V12.977H139.047V40.9217H136.482V42.2488H144.603V40.9217H140.329V15.6313L155.929 42.8387V42.765V42.8387H157.211V12.977H159.989V11.6498H151.726V12.977H151.655ZM163.123 33.7696C161.556 33.7696 160.274 35.2442 160.274 37.0138C160.274 38.7834 161.556 40.2581 163.123 40.2581C164.69 40.2581 165.973 38.7834 165.973 37.0138C165.901 35.2442 164.69 33.7696 163.123 33.7696ZM183.425 17.3272C183.353 17.2535 183.353 17.1797 183.282 17.1797C183.14 17.0323 182.997 16.8848 182.855 16.7373C182.427 16.5161 181.929 16.2949 181.074 16.2949C178.937 16.2949 177.94 17.4009 177.014 18.8756C176.373 19.8341 175.731 21.0876 175.375 21.8986C175.375 21.4562 175.233 20.6452 174.805 19.3917C174.164 17.6959 173.595 17.106 173.523 16.9585H168.466V18.212H171.671V38.341H168.466V39.5945H179.863V38.341H175.375V24.4055C175.874 23.1521 176.586 21.53 177.726 19.7604C178.866 18.2857 179.436 17.8433 180.077 17.8433C180.362 17.8433 180.362 19.1705 180.362 19.8341C180.362 19.9078 180.362 20.0553 180.362 20.129C180.362 20.2028 180.362 20.2028 180.362 20.2028C180.362 23.1521 181.216 23.8894 182.285 23.8894C183.353 23.8894 184.137 23.1521 184.137 20.2028C184.137 19.0968 183.852 18.0645 183.425 17.3272C183.425 17.4009 183.425 17.3272 183.425 17.3272ZM205.507 38.341C204.937 38.341 204.866 37.7512 204.866 37.6774V16.8848H201.162V34.0645C201.09 34.1383 198.668 39.0046 195.249 39.0046C193.468 39.0046 192.97 38.0461 192.97 36.9401V16.8848H185.918V18.1383H189.195V34.8018C189.195 34.8018 189.052 40.1843 194.751 40.1843C198.597 40.1843 200.734 36.5714 201.09 35.9078V36.129C201.019 38.1936 201.732 39.5945 202.729 39.5945H207.929V38.341H205.507Z" fill="white"/>
</g>
<defs>
<clipPath id="clip0">
<rect width="208" height="48" fill="white"/>
</clipPath>
</defs>
</svg>
